<?xml version="1.0" standalone="no"?>
<!DOCTYPE svg PUBLIC "-//W3C//DTD SVG 20010904//EN"
 "http://www.w3.org/TR/2001/REC-SVG-20010904/DTD/svg10.dtd">
<svg version="1.0" xmlns="http://www.w3.org/2000/svg"
 width="1080.000000pt" height="1080.000000pt" viewBox="0 0 1080.000000 1080.000000"
 preserveAspectRatio="xMidYMid meet">
<metadata>
Created by potrace 1.14, written by Peter Selinger 2001-2017
</metadata>
<g transform="translate(0.000000,1080.000000) scale(0.100000,-0.100000)"
fill="#000000" stroke="none">
<path d="M2230 9568 l0 -35 1043 -7 c1183 -8 1956 -20 2587 -41 844 -29 876
-28 310 5 -922 53 -1433 68 -3562 106 l-378 7 0 -35z"/>
<path d="M6638 9453 c18 -2 45 -2 60 0 15 2 0 4 -33 4 -33 0 -45 -2 -27 -4z"/>
<path d="M6895 9434 c796 -77 1046 -103 1355 -140 118 -14 217 -28 220 -31 9
-10 -390 22 -715 57 -192 20 -507 47 -955 80 -362 27 -1556 46 -1950 31 -485
-19 -1048 -23 -1765 -13 -737 10 -875 8 -875 -13 0 -14 102 -18 805 -36 494
-13 1337 -7 1826 12 488 19 1521 -3 2179 -46 445 -30 1525 -135 1539 -151 3
-4 -35 -4 -85 -1 -50 4 -187 9 -305 11 l-214 5 190 -9 c217 -10 637 -38 707
-46 l47 -6 7 36 c3 20 5 38 3 40 -5 5 -610 90 -850 120 -238 30 -635 69 -985
96 -292 22 -394 25 -179 4z"/>
<path d="M6711 9199 c-545 -19 -1160 -68 -1851 -145 l-225 -26 -389 13 c-424
13 -1028 8 -1346 -12 -169 -11 -225 -10 -422 5 -124 9 -242 20 -261 23 -26 4
-36 1 -41 -12 -3 -10 -4 -20 -1 -23 7 -7 241 -21 363 -22 125 0 959 -77 981
-90 11 -6 12 -9 3 -10 -7 0 -126 -13 -265 -30 -289 -34 -797 -86 -937 -95
-111 -7 -173 -15 -167 -22 11 -10 589 45 1122 107 l340 40 465 -65 c550 -76
858 -127 833 -136 -10 -3 -205 -9 -433 -13 -428 -6 -808 -19 -1129 -36 -113
-7 -384 -8 -701 -4 l-516 7 -11 -104 c-6 -57 -9 -106 -7 -108 2 -2 131 1 286
8 1638 65 1635 65 1898 47 376 -26 1038 -94 1075 -112 6 -2 -44 -2 -110 1
-458 19 -1285 25 -2090 15 -478 -7 -915 -15 -970 -18 l-100 -7 -3 -34 -4 -34
169 6 c744 29 2455 33 3163 7 596 -21 653 -26 1065 -96 571 -96 686 -117 678
-125 -5 -4 -91 -33 -191 -64 l-184 -57 -571 46 c-1399 111 -1770 130 -2587
130 -563 0 -776 -7 -1275 -39 -236 -16 -301 -23 -292 -31 3 -3 94 2 203 10
889 69 1897 67 2944 -4 370 -26 1532 -119 1537 -123 1 -2 -87 -31 -196 -65
l-199 -62 -994 0 c-546 0 -1310 -5 -1697 -10 l-705 -11 -295 95 c-378 121
-344 114 -358 75 -7 -18 -12 -34 -10 -35 1 -1 103 -33 227 -70 l225 -69 -146
-7 c-141 -7 -148 -7 -245 21 -63 18 -103 25 -109 19 -7 -6 -4 -14 8 -22 17
-13 17 -14 0 -21 -10 -4 -64 -9 -120 -12 l-103 -6 0 -38 c0 -20 -3 -45 -7 -54
-5 -15 0 -17 43 -11 27 3 155 11 284 16 l236 10 99 -35 100 -35 -383 6 c-239
4 -382 3 -382 -3 0 -13 253 -23 573 -23 l257 0 323 -104 c177 -57 372 -120
432 -139 110 -35 676 -200 728 -213 15 -3 27 -9 27 -13 0 -3 -110 -46 -245
-94 l-244 -88 -138 45 c-303 98 -654 198 -933 265 -194 47 -241 63 -499 165
-190 76 -210 80 -211 44 0 -7 84 -38 340 -128 170 -60 306 -112 350 -135 14
-7 68 -29 120 -49 210 -82 463 -190 453 -193 -21 -7 -867 151 -895 167 -10 6
-32 10 -50 10 -18 0 -120 20 -226 44 -106 23 -195 40 -197 36 -2 -3 77 -24
175 -45 98 -21 177 -42 174 -47 -3 -4 15 -8 39 -8 24 0 98 -11 163 -24 66 -14
294 -57 508 -96 341 -62 398 -75 468 -107 43 -20 75 -40 71 -44 -5 -5 -39 -19
-75 -32 l-67 -23 -332 33 -333 34 -225 73 c-124 40 -277 88 -338 107 -68 20
-108 36 -100 41 7 4 -3 8 -24 8 -19 0 -59 7 -88 16 -29 8 -54 14 -56 12 -2 -2
-21 -45 -44 -96 -27 -63 -36 -94 -28 -97 7 -3 251 -68 542 -145 292 -77 539
-144 550 -149 19 -8 19 -8 -3 -15 -18 -6 -21 -12 -16 -33 6 -21 4 -24 -12 -19
-94 29 -1072 306 -1081 306 -15 0 -46 -57 -35 -63 4 -3 102 -30 217 -62 345
-93 979 -276 989 -285 4 -4 -1 -11 -13 -15 -12 -3 -21 -15 -21 -26 0 -23 4
-24 71 0 l54 18 222 -66 c122 -36 220 -67 219 -69 -2 -1 -208 18 -457 43 -451
45 -456 45 -687 103 l-233 57 168 5 168 6 -197 2 c-193 2 -199 3 -395 47 -227
52 -203 47 -203 37 0 -5 71 -24 158 -43 151 -33 155 -34 107 -40 -44 -5 -40
-6 30 -7 57 -1 134 -15 270 -49 105 -25 186 -48 180 -50 -5 -1 -135 10 -287
25 -153 15 -278 24 -278 20 0 -4 8 -8 17 -8 10 0 172 -16 360 -35 l342 -35
298 -86 c164 -48 316 -91 338 -97 l40 -12 -40 -7 c-36 -6 -35 -6 14 -5 92 3
69 -17 -61 -54 -108 -30 -123 -37 -120 -54 2 -11 6 -22 8 -24 2 -3 79 19 172
48 l167 52 130 -44 130 -45 -200 -97 -199 -97 -426 121 c-234 66 -533 150
-664 187 -132 36 -274 79 -315 95 -42 17 -83 33 -91 36 -8 3 -6 -1 5 -10 16
-12 0 -11 -75 8 -52 14 -103 25 -112 25 -10 0 -23 -16 -34 -45 -9 -25 -15 -47
-13 -48 2 -2 90 -24 194 -50 250 -61 761 -204 796 -223 16 -8 46 -16 66 -18
62 -7 623 -211 623 -227 0 -4 -14 -10 -31 -14 -24 -6 -30 -11 -26 -27 4 -15 2
-18 -11 -13 -56 22 -863 294 -1212 409 -300 99 -416 133 -421 124 -5 -8 67
-35 254 -94 335 -106 843 -276 1158 -389 l246 -87 19 -74 19 -73 82 36 c75 32
86 34 114 23 16 -7 26 -16 22 -20 -4 -4 -52 -24 -106 -45 l-98 -39 7 -30 c8
-41 12 -44 63 -38 24 2 38 7 32 11 -6 4 43 29 108 56 l120 48 88 -33 c48 -18
104 -40 123 -48 l34 -14 -74 -34 c-279 -128 -430 -200 -430 -206 0 -17 32 -5
195 74 125 59 181 81 210 81 26 0 31 2 15 5 -21 4 -15 9 45 37 l70 32 130 -53
c71 -29 131 -52 132 -50 2 2 -41 23 -96 47 -55 24 -99 45 -97 47 5 4 358 -118
369 -128 14 -12 -42 -21 -63 -10 -10 5 -22 10 -27 10 -4 -1 3 -7 15 -14 22
-12 12 -18 -160 -91 -254 -108 -366 -149 -488 -180 -171 -43 -180 -45 -180
-54 0 -5 34 0 76 11 42 10 78 17 80 15 3 -2 -29 -19 -70 -36 l-74 -33 13 -50
c8 -27 16 -52 18 -54 2 -2 59 21 127 52 243 110 796 336 827 337 18 1 33 5 33
9 0 16 86 19 125 4 22 -8 32 -15 22 -15 -10 -1 -16 -5 -13 -10 11 -18 -52 -23
-83 -7 -16 9 -34 16 -38 16 -4 -1 7 -9 26 -19 l33 -18 -228 -80 c-582 -206
-824 -297 -824 -310 0 -20 15 -17 145 33 429 163 944 343 963 337 6 -3 12 0
12 5 0 20 60 32 108 21 102 -22 332 -111 332 -128 0 -12 -91 -52 -102 -45 -6
4 -8 2 -5 -4 4 -6 -56 -45 -150 -98 -87 -48 -288 -161 -447 -251 -161 -92
-296 -162 -305 -160 -9 3 -205 87 -436 187 -470 204 -1230 525 -1837 776 -484
200 -448 186 -448 174 0 -5 10 -12 22 -16 142 -45 2652 -1107 2681 -1134 5 -4
-26 -27 -67 -50 l-76 -42 -363 121 c-199 67 -367 121 -372 120 -6 0 150 -54
345 -121 195 -66 358 -123 362 -127 4 -3 -41 -33 -100 -67 -58 -33 -108 -66
-110 -72 -2 -7 52 20 120 59 l123 72 142 -49 c79 -27 143 -51 143 -54 0 -4
-108 -36 -241 -74 l-241 -67 -176 75 c-288 121 -1597 671 -2001 840 -205 86
-376 155 -378 152 -7 -6 12 -15 217 -101 1302 -544 2307 -969 2315 -979 6 -7
15 -11 20 -9 6 2 119 -42 250 -98 132 -55 251 -105 265 -111 23 -9 18 -12 -62
-45 l-87 -35 -392 166 c-216 92 -394 165 -396 163 -2 -2 170 -77 382 -167 212
-90 382 -167 378 -170 -5 -4 -57 -26 -118 -50 -104 -41 -142 -60 -119 -60 6 0
66 23 134 50 68 28 131 50 139 49 17 -1 101 -37 89 -38 -28 -3 -345 -95 -352
-102 -19 -18 31 -8 209 41 l180 50 102 -43 c93 -38 123 -57 91 -57 -22 0 -538
-164 -538 -171 0 -4 26 1 58 11 31 9 161 49 289 89 l231 72 384 -162 c764
-321 1706 -704 1714 -696 2 2 -133 58 -299 124 -410 165 -849 345 -1357 559
l-425 178 85 27 c47 15 95 28 107 28 12 1 606 -245 1320 -545 1462 -615 1346
-567 1339 -556 -2 4 -592 255 -1310 557 -718 303 -1306 552 -1306 555 0 3 128
43 284 88 l284 82 154 -59 c378 -145 743 -297 1278 -531 580 -254 762 -331
774 -327 6 2 -5 11 -24 19 -159 69 -625 279 -918 414 -196 91 -453 209 -569
262 -117 52 -211 97 -209 99 3 4 589 -213 1346 -497 223 -84 414 -154 425
-157 17 -4 18 -3 4 6 -24 15 -1383 524 -1629 610 -243 85 -500 184 -500 192 0
12 1235 343 1280 343 47 -1 23 11 645 -316 116 -61 265 -142 333 -180 68 -39
126 -68 128 -65 7 6 -260 154 -595 328 -146 76 -261 139 -255 139 6 0 39 -11
73 -26 35 -14 65 -23 67 -21 2 2 -40 21 -94 42 -154 60 -262 107 -262 114 0 3
117 37 260 75 l260 69 187 -47 c104 -27 277 -70 385 -96 189 -45 198 -46 204
-28 3 11 4 21 2 22 -1 1 -39 10 -83 20 -164 36 -580 139 -594 146 -18 10 132
50 160 43 14 -4 20 -2 16 4 -4 6 26 19 71 31 l77 20 125 -42 c69 -23 160 -59
203 -79 42 -20 77 -33 77 -28 0 4 -10 13 -22 19 -21 10 -20 10 8 6 28 -5 32
-3 46 35 l17 42 -99 49 c-54 27 -101 53 -103 57 -3 5 33 19 79 31 l85 22 44
-26 c25 -14 45 -22 45 -17 0 5 -16 17 -36 27 -20 9 -35 18 -33 20 2 2 105 32
229 66 734 202 1944 560 1965 582 12 13 21 15 -225 -61 -293 -90 -931 -277
-1320 -386 -190 -53 -389 -109 -442 -125 -66 -19 -98 -24 -101 -16 -3 6 -39
24 -81 40 -42 16 -73 32 -69 36 4 4 503 141 1108 305 605 164 1102 299 1104
301 2 2 2 7 -1 10 -4 3 -513 -132 -1134 -300 l-1127 -305 -261 105 c-144 58
-264 109 -268 113 -7 6 371 131 395 131 5 0 100 -49 213 -110 112 -60 210
-110 217 -110 22 1 -20 26 -208 125 -102 54 -185 101 -185 104 0 4 41 19 91
34 l91 28 139 -74 c76 -41 139 -71 139 -66 0 4 -56 38 -125 75 -69 37 -124 69
-122 70 2 2 57 20 123 40 104 32 125 35 165 27 44 -9 47 -8 56 17 7 19 21 29
54 37 24 5 137 36 251 67 190 51 1313 342 1366 354 22 4 38 19 30 28 -3 2
-103 -21 -224 -52 -297 -76 -1428 -343 -1433 -338 -2 2 -2 6 0 8 3 3 364 118
804 257 440 138 804 255 809 260 22 20 -6 14 -134 -26 -74 -24 -297 -94 -494
-155 -198 -62 -506 -159 -685 -216 -179 -57 -330 -104 -335 -104 -28 0 -1180
418 -1184 430 -2 6 -16 10 -30 11 -40 1 -101 25 -82 32 8 4 75 21 148 40 l133
33 267 -27 c147 -15 283 -30 302 -33 19 -3 107 -33 194 -66 88 -33 162 -61
165 -61 3 -1 -7 -5 -24 -9 -26 -7 -24 -8 20 -9 32 -1 85 -16 146 -40 l97 -38
16 35 c9 19 15 36 14 38 -2 1 -55 28 -118 58 -64 31 -102 54 -85 51 73 -10
160 -17 154 -11 -3 3 -52 11 -110 17 -101 11 -111 14 -324 112 -121 55 -224
103 -228 107 -4 4 120 42 275 85 278 77 348 89 411 69 9 -3 17 -1 17 5 0 6
-13 11 -30 11 -56 0 -30 17 68 43 149 40 1038 204 1210 223 34 3 62 11 62 15
0 5 -8 9 -17 9 -35 0 -358 -53 -612 -101 -145 -27 -265 -48 -267 -46 -2 2 189
63 424 136 235 73 432 137 437 143 7 8 4 9 -9 4 -37 -13 -861 -265 -971 -296
-60 -18 -199 -49 -308 -70 l-198 -37 -210 25 c-115 14 -209 28 -209 31 0 3 45
24 101 45 l100 40 220 -13 c121 -7 222 -11 225 -8 5 4 -95 13 -286 23 -114 7
-122 8 -95 20 17 7 174 72 350 143 363 147 666 275 967 412 181 82 208 97 208
117 0 12 -5 22 -12 22 -6 0 -88 -36 -182 -79 -370 -172 -724 -324 -1161 -500
l-300 -122 -80 8 -80 8 320 137 c498 213 930 388 1317 534 87 32 158 63 158
67 0 5 -3 6 -7 4 -5 -3 -89 -35 -188 -72 -393 -146 -1040 -411 -1485 -608
l-146 -64 -129 9 c-72 4 -143 9 -160 10 -24 2 -7 12 80 45 61 23 324 123 585
223 984 377 1216 462 1319 485 107 25 122 31 106 43 -6 4 -11 25 -12 46 -2 22
-7 44 -12 49 -4 4 -156 -18 -347 -52 -580 -103 -689 -121 -725 -121 -19 0 -39
-4 -44 -9 -6 -4 -73 -18 -150 -30 -127 -20 -146 -21 -205 -9 l-64 14 81 22
c44 12 89 22 100 22 10 0 23 4 28 9 13 12 445 120 655 165 91 19 269 51 395
72 127 20 234 41 240 45 16 15 -18 11 -312 -42 -157 -27 -287 -49 -288 -47 -2
2 127 41 286 88 247 72 289 87 289 103 0 24 34 32 -410 -96 -420 -121 -545
-154 -760 -196 -264 -52 -381 -71 -439 -71 -34 0 -51 -4 -43 -9 30 -18 -84
-20 -173 -2 -76 16 -84 19 -50 21 22 2 -3 6 -55 11 -114 9 -302 39 -313 49
-18 16 386 145 723 231 195 50 256 59 523 75 105 6 117 8 117 25 0 16 -8 19
-52 20 -44 1 -24 7 112 34 91 19 299 57 463 86 180 32 296 57 294 64 -2 5 -15
9 -28 7 -42 -6 -519 -90 -644 -114 -110 -21 -139 -23 -355 -18 l-235 5 65 27
c36 15 95 34 132 43 60 14 77 14 159 0 95 -15 127 -14 68 4 l-34 9 38 1 c29 1
37 5 37 20 0 15 11 22 48 29 94 21 469 92 562 107 141 23 153 26 143 36 -9 9
-270 -33 -581 -94 -129 -25 -172 -30 -168 -20 4 9 -3 13 -22 14 -23 1 -19 5
28 27 30 14 196 83 368 153 173 70 316 129 318 131 5 6 -27 121 -37 132 -4 4
-147 -38 -318 -95 l-311 -104 -342 29 c-189 16 -352 32 -362 36 -21 7 -14 10
339 137 l180 64 85 -16 c47 -9 95 -19 108 -22 12 -3 22 -1 22 4 0 6 -33 16
-72 23 -40 7 -79 15 -86 19 -12 7 233 89 513 171 77 23 146 43 154 46 14 5 9
60 -8 77 -5 5 -147 -23 -325 -64 l-317 -72 -197 36 c-108 20 -296 54 -416 74
-165 28 -212 39 -188 44 18 4 171 9 340 13 169 3 382 9 473 12 l166 6 6 66 c4
36 6 67 4 68 -1 1 -168 9 -372 18 -203 9 -662 32 -1020 51 -1467 78 -1935 99
-2438 111 -158 4 -285 9 -283 12 10 10 638 71 1036 102 648 48 933 61 1585 69
l560 7 -500 1 c-275 0 -601 -4 -724 -8z m-2396 -188 l100 -6 -405 -46 c-387
-45 -409 -46 -495 -34 -49 7 -225 25 -390 40 -165 15 -307 30 -315 33 -8 4 48
9 125 12 200 8 1261 9 1380 1z m735 -27 c281 -19 592 -48 920 -84 654 -74
1047 -121 1075 -129 30 -9 30 -9 -10 -10 -22 -1 -375 -15 -785 -31 -410 -16
-854 -30 -988 -30 -226 0 -254 2 -408 30 -91 16 -389 61 -662 100 -428 61
-539 79 -496 80 5 1 196 23 424 50 461 55 483 55 930 24z m497 1 c409 -17
1229 -56 1788 -85 1181 -60 1402 -73 1420 -80 12 -5 -46 -9 -145 -10 -209 -1
-741 -16 -1110 -31 l-285 -11 -335 41 c-451 55 -899 104 -1285 141 -296 28
-447 46 -418 49 6 0 173 -6 370 -14z m-732 -311 c-20 -4 -907 -38 -1280 -49
-227 -7 -326 8 -120 18 122 6 681 25 915 30 166 4 507 5 485 1z m2966 -14 c30
-5 227 -39 439 -75 212 -37 391 -70 398 -74 6 -4 -60 -24 -148 -46 l-161 -39
-282 47 c-340 56 -649 99 -932 127 -221 22 -255 27 -190 30 176 8 811 37 816
39 3 0 30 -3 60 -9z m-726 -69 c317 -30 642 -75 1030 -142 152 -27 184 -35
160 -41 -16 -5 -173 -49 -347 -98 -174 -50 -328 -90 -342 -90 -30 0 -413 74
-1021 198 -242 49 -519 105 -615 123 -169 32 -173 33 -125 41 169 26 1016 32
1260 9z m-1275 -36 c155 -26 1693 -335 1715 -345 15 -7 9 -8 -20 -4 -105 12
-478 47 -840 79 -220 20 -454 44 -520 55 -240 39 -688 100 -1030 140 -192 23
-359 46 -370 50 -13 6 9 9 65 10 47 1 258 10 470 20 212 9 396 16 410 14 14
-2 68 -11 120 -19z m2987 -51 c-3 -3 -12 -4 -19 -1 -8 3 -5 6 6 6 11 1 17 -2
13 -5z m-68 -18 c-13 -13 -285 -84 -296 -77 -8 4 42 22 124 43 127 33 183 44
172 34z m56 -66 c-140 -49 -179 -58 -189 -41 -5 7 280 89 314 90 8 0 -48 -22
-125 -49z m-395 -29 c-8 -5 -69 -23 -135 -41 -66 -17 -213 -58 -327 -91 -181
-52 -285 -72 -265 -53 11 11 681 192 712 193 22 0 26 -2 15 -8z m185 -30 c17
-7 14 -10 -20 -21 -22 -7 -148 -52 -280 -100 l-240 -87 -70 8 c-38 4 -81 9
-95 9 -23 1 -24 2 -5 11 31 15 647 188 670 188 11 0 29 -4 40 -8z m-1380 -161
c132 -12 245 -22 250 -24 6 -2 -23 -13 -63 -26 l-73 -22 -207 42 c-228 45
-292 63 -202 55 30 -3 163 -14 295 -25z m2114 16 c-2 -2 -128 -54 -279 -116
-269 -109 -276 -112 -330 -105 -30 4 -48 10 -40 14 28 11 635 209 644 210 5 1
7 -1 5 -3z m-1751 -55 c20 -13 -140 -55 -175 -46 -25 7 -21 10 47 30 83 25
109 29 128 16z m351 -37 c33 -7 31 -8 -62 -45 l-96 -38 -108 21 -108 22 85 28
c74 24 96 27 170 23 47 -2 100 -8 119 -11z m215 -30 c48 -8 96 -13 105 -11 9
3 3 5 -14 6 -16 1 -37 6 -45 12 -11 7 -1 9 35 5 28 -3 142 -13 255 -21 113 -9
221 -18 240 -21 l35 -7 -50 -17 c-27 -10 -70 -19 -95 -20 -29 -1 -39 -4 -27
-9 13 -4 -18 -18 -101 -44 -66 -20 -128 -37 -138 -37 -11 0 -136 23 -278 52
-180 36 -254 54 -240 60 179 76 181 76 318 52z m-809 -12 c-6 -5 -93 -34 -195
-66 -141 -44 -191 -55 -209 -49 -19 8 4 18 145 65 107 36 187 57 219 57 27 1
45 -3 40 -7z m260 -45 l110 -23 -134 -54 -134 -53 -151 17 c-83 10 -152 19
-154 21 -4 4 326 113 343 114 6 0 59 -10 120 -22z m413 -83 c138 -27 252 -51
252 -54 0 -4 -45 -20 -99 -37 l-99 -30 -283 33 c-155 19 -283 35 -285 37 -5 5
240 105 251 102 6 -1 124 -24 263 -51z m716 26 c13 -5 -9 -17 -83 -48 -102
-42 -102 -42 -166 -30 -36 6 -62 14 -59 17 3 3 53 23 112 43 105 36 139 39
196 18z m-1804 -28 c0 -4 -64 -31 -142 -60 -116 -42 -154 -52 -203 -51 l-60 1
170 58 c157 54 235 71 235 52z m409 -45 l83 -12 -78 -34 -78 -33 -215 8 -214
9 119 43 c116 41 122 42 209 36 50 -3 128 -11 174 -17z m355 -42 c115 -14 212
-28 215 -30 2 -3 -126 -5 -285 -4 l-289 1 60 28 c33 16 67 29 75 29 8 1 109
-10 224 -24z m731 11 l60 -13 -39 -16 c-30 -13 -68 -17 -170 -16 l-131 1 80
28 c91 32 116 34 200 16z m-2530 -210 c-148 -51 -283 -98 -298 -105 -39 -15
-177 -14 -299 4 -135 19 -368 43 -493 49 -55 3 15 -6 155 -20 140 -15 258 -29
262 -33 13 -12 -738 12 -957 30 -66 5 -228 12 -360 15 -211 4 -248 7 -308 26
-52 17 -64 24 -50 30 13 6 12 7 -7 4 -14 -3 -63 8 -110 24 l-85 29 75 -5 c41
-2 182 -11 312 -20 130 -9 242 -14 249 -12 6 2 -91 12 -217 22 -126 10 -230
19 -232 21 -15 14 1081 30 2213 33 l420 1 -270 -93z m505 85 c-8 -5 -125 -49
-260 -99 -228 -84 -252 -91 -340 -96 l-95 -6 180 66 c358 132 395 143 465 143
40 0 59 -3 50 -8z m687 3 c-3 -3 -88 -43 -189 -89 -101 -45 -209 -95 -240
-109 l-58 -27 -292 8 -293 8 60 21 c33 12 164 60 290 108 l230 85 249 1 c137
0 247 -3 243 -6z m728 -4 c-3 -5 -11 -10 -17 -10 -6 0 -151 -46 -322 -101
l-311 -102 -250 -3 -250 -4 84 40 c56 27 98 41 130 42 39 1 41 2 12 5 -32 4
-22 10 115 73 l149 68 333 1 c220 1 331 -2 327 -9z m393 -5 c8 -7 -199 -85
-228 -86 -28 0 -31 -2 -15 -9 19 -7 18 -8 -5 -14 -420 -103 -382 -96 -544 -95
l-151 1 145 49 c133 45 153 49 250 51 l105 2 -85 4 -85 4 160 54 160 54 145
-6 c80 -4 146 -8 148 -9z m-4923 -74 c77 -24 142 -45 145 -48 3 -3 -78 -2
-180 2 -175 6 -191 8 -305 43 l-120 37 60 6 c33 4 105 6 160 4 85 -2 121 -8
240 -44z m5355 -56 c-117 -25 -197 -35 -330 -43 -96 -5 -176 -9 -178 -7 -1 1
40 20 90 42 l93 41 240 0 240 0 -155 -33z m-5270 -15 l175 -9 290 -91 c160
-50 299 -94 310 -99 11 -5 74 -25 140 -45 66 -20 180 -56 253 -80 l133 -43
-71 -26 -70 -26 -278 81 c-152 44 -285 83 -295 85 -14 4 -16 8 -6 14 8 5 -2 8
-26 8 -34 0 -369 100 -700 209 -104 35 -104 35 145 22z m925 -50 c436 -31 495
-34 352 -15 -110 15 -21 14 324 -2 200 -10 392 -17 427 -16 34 0 62 -1 62 -2
0 -2 -37 -15 -82 -30 -46 -15 -96 -33 -113 -40 -16 -7 -142 -52 -279 -100
l-248 -89 -477 158 c-262 87 -478 160 -481 163 -6 7 162 -2 515 -27z m3485 10
c-8 -5 -24 -9 -35 -9 -16 1 -16 2 5 9 35 11 48 11 30 0z m420 -46 c-30 -8
-140 -38 -245 -65 -104 -28 -199 -53 -210 -56 -11 -2 43 24 120 58 145 65 191
76 320 77 l70 0 -55 -14z m-2506 -13 c26 -5 21 -9 -55 -39 -46 -18 -91 -37
-100 -42 -24 -13 -193 -84 -393 -166 l-180 -74 -68 22 c-37 12 -65 25 -61 29
5 4 134 53 288 109 154 57 318 117 365 136 84 33 139 40 204 25z m716 2 l123
-6 -78 -39 -77 -39 -237 31 c-261 35 -276 38 -246 50 25 10 348 12 515 3z
m1015 1 c-44 -17 -586 -152 -601 -149 -84 17 -87 15 96 78 161 55 184 61 290
67 139 8 229 10 215 4z m224 2 c-2 -2 -110 -50 -239 -106 l-235 -102 -103 17
c-57 9 -105 15 -108 12 -2 -2 30 -10 73 -17 42 -6 83 -14 91 -17 24 -10 -8
-23 -58 -24 -34 -1 -39 -3 -21 -8 19 -5 -63 -44 -390 -183 -228 -98 -439 -186
-469 -197 -30 -10 -84 -30 -120 -45 l-65 -26 -204 75 c-113 41 -206 77 -209
79 -17 17 1065 326 1146 327 31 0 41 3 28 8 -25 10 83 35 144 34 34 -1 39 0
20 6 -19 5 31 21 205 65 127 32 268 68 315 81 71 20 213 34 199 21z m-784 -67
c-157 -52 -188 -59 -240 -55 -33 2 -49 2 -35 -1 14 -2 32 -6 40 -9 8 -3 -151
-63 -355 -133 -203 -71 -433 -151 -510 -179 -77 -27 -149 -53 -160 -56 -11 -4
163 85 386 197 l406 205 58 -10 c32 -5 68 -7 79 -6 12 2 -10 8 -49 12 l-70 8
85 44 85 43 230 0 230 0 -180 -60z m-781 10 c127 -17 238 -33 246 -35 8 -3
-171 -100 -398 -215 l-413 -210 -167 59 c-92 33 -192 67 -222 77 -30 10 -59
21 -63 25 -4 4 14 15 40 25 26 10 183 75 348 145 340 144 376 159 389 159 5 1
113 -13 240 -30z m700 -96 l40 -6 -65 -18 c-35 -10 -81 -18 -102 -19 -21 0
-36 -4 -33 -8 5 -8 -483 -147 -490 -140 -6 6 561 197 586 197 14 1 43 -2 64
-6z m-3842 -125 c-10 -4 1 -7 28 -7 42 -1 253 -61 723 -206 103 -32 187 -61
187 -65 0 -3 -22 -13 -49 -22 -47 -15 -57 -14 -183 8 -105 20 -156 35 -243 74
-98 43 -287 122 -545 227 -119 48 -119 56 -1 25 67 -18 95 -29 83 -34z m6627
18 c-2 -2 -114 -45 -249 -95 -228 -86 -292 -104 -905 -261 -363 -92 -851 -225
-1085 -294 l-425 -126 -130 50 c-71 27 -130 48 -132 46 -2 -2 46 -23 107 -47
l110 -44 -46 -3 c-36 -3 -75 8 -182 49 -76 29 -139 53 -141 55 -2 2 8 8 22 13
19 8 38 6 68 -4 23 -9 44 -13 46 -11 2 2 -13 10 -34 17 l-38 12 63 24 c35 13
163 55 285 94 234 74 521 137 1227 269 l315 58 147 -32 c81 -18 145 -29 143
-26 -3 4 -53 17 -112 30 -60 12 -114 25 -121 29 -7 4 151 35 350 70 200 34
440 77 533 95 189 37 190 38 184 32z m-1855 -62 c105 -18 195 -34 200 -35 6 0
-207 -38 -474 -84 -267 -45 -546 -94 -620 -108 -74 -14 -136 -24 -138 -22 -3
3 298 137 523 232 l150 64 85 -6 c47 -3 170 -22 274 -41z m-2875 -5 c34 -12
61 -23 59 -24 -2 -2 -27 -13 -55 -24 l-53 -21 -80 22 c-44 12 -79 22 -78 24 9
8 107 43 124 43 11 1 48 -8 83 -20z m3486 5 c-27 -7 -66 -13 -85 -13 -27 1
-19 4 30 14 87 17 117 16 55 -1z m-145 -40 c-48 -16 -123 -20 -143 -7 -16 11
41 20 123 21 l65 1 -45 -15z m-2945 -94 c121 -40 224 -76 229 -81 6 -5 -5 -15
-26 -24 -35 -14 -42 -13 -260 54 -122 37 -239 72 -258 77 l-35 10 55 21 c30
12 60 20 65 19 6 -2 109 -36 230 -76z m2818 71 c23 -9 -817 -247 -1028 -291
-82 -18 -253 -56 -380 -86 -126 -30 -242 -57 -257 -61 -25 -5 -139 28 -161 47
-4 4 72 42 170 84 208 89 213 90 953 216 261 44 495 84 520 89 55 11 158 12
183 2z m-3432 -17 c30 -8 61 -17 69 -20 16 -6 -435 -183 -485 -190 -17 -3 -57
5 -94 19 l-64 24 69 26 c38 15 146 56 239 91 94 36 179 65 191 65 11 1 45 -6
75 -15z m3637 -20 c23 -4 41 -8 39 -10 -6 -6 -419 -75 -429 -72 -17 6 305 97
327 93 11 -2 39 -7 63 -11z m-3309 -68 c69 -19 180 -52 246 -74 l120 -38 -135
-46 c-74 -25 -191 -66 -260 -90 l-125 -45 -150 28 c-132 25 -315 78 -338 99
-7 6 474 198 502 199 7 1 70 -15 140 -33z m3870 -50 c-2 -2 -290 -112 -639
-244 -349 -132 -660 -250 -690 -262 -54 -22 -57 -22 -290 -10 -129 7 -236 13
-237 14 -9 8 920 270 1332 376 468 120 535 136 524 126z m-3072 -88 c117 -40
213 -76 213 -80 0 -4 -16 -10 -36 -14 -28 -5 -80 7 -255 62 -120 37 -216 70
-213 73 5 5 61 28 74 30 3 1 101 -31 217 -71z m-2057 38 c63 -13 64 -14 37
-25 -38 -15 -45 -14 -97 14 -52 28 -37 30 60 11z m393 -23 c77 -22 76 -39 -3
-33 -14 1 -54 7 -90 14 l-65 13 35 16 c19 9 42 14 50 11 8 -3 41 -12 73 -21z
m1497 -73 l195 -63 -70 -14 c-38 -8 -160 -34 -270 -59 l-200 -45 -117 23 c-65
12 -118 25 -118 28 0 9 364 198 375 195 6 -1 98 -30 205 -65z m-1575 37 l70
-13 -35 -15 c-19 -9 -58 -24 -86 -34 l-50 -18 -64 29 -63 28 59 22 c33 12 68
20 79 18 11 -2 52 -10 90 -17z m-747 -28 c144 -15 217 -26 207 -31 -8 -5 -41
-18 -72 -29 l-56 -19 -206 51 c-113 28 -208 53 -211 56 -5 6 7 5 338 -28z
m1017 1 c13 -6 15 -9 5 -9 -8 0 -22 4 -30 9 -18 12 -2 12 25 0z m945 6 c0 -3
-62 -36 -137 -73 -95 -47 -147 -68 -165 -65 -16 2 -28 6 -28 10 0 4 73 35 163
69 189 72 167 64 167 59z m-1409 -31 l54 -26 -55 6 c-30 2 -67 5 -82 5 -16 0
-28 4 -28 8 0 5 12 13 28 19 15 6 28 11 28 12 1 1 26 -10 55 -24z m529 -9
c110 -22 337 -92 327 -102 -4 -4 -560 54 -597 62 -21 5 -13 11 50 34 41 16 80
29 85 29 6 1 66 -10 135 -23z m-1124 -28 c46 -12 84 -26 84 -30 0 -13 -24 -9
-106 18 -124 41 -112 47 22 12z m594 3 l55 -7 -55 -21 c-30 -12 -84 -32 -120
-46 l-65 -24 -79 21 -79 22 94 36 c99 38 98 37 249 19z m509 -56 c170 -19 318
-35 328 -35 28 -1 5 -12 -145 -69 l-133 -51 -189 88 c-169 77 -212 102 -181
102 6 0 149 -16 320 -35z m396 11 c45 -9 55 -14 39 -19 -11 -4 -43 1 -75 12
-63 23 -49 25 36 7z m1094 10 c-2 -2 -79 -34 -172 -72 l-167 -67 -85 12 c-47
7 -85 16 -85 20 0 4 89 26 198 49 108 24 215 47 237 51 44 10 81 13 74 7z
m-1646 -93 l188 -88 -33 -14 c-18 -7 -41 -17 -50 -22 -10 -5 -30 -9 -45 -8
-25 0 -26 1 -8 9 16 7 11 9 -20 9 -42 0 -467 112 -459 121 8 7 207 78 224 79
8 1 100 -38 203 -86z m2105 55 c40 -14 58 -25 50 -30 -20 -12 -53 -10 -119 9
-54 15 -59 18 -43 30 24 18 39 17 112 -9z m-2682 -40 c-10 -6 -29 -5 -49 1
-18 5 -52 15 -76 21 -28 8 -40 15 -32 19 7 5 49 -1 93 -12 60 -15 76 -22 64
-29z m1306 36 c52 -9 37 -24 -22 -24 -47 0 -73 13 -48 23 18 8 28 8 70 1z
m178 -39 l65 -14 -70 5 c-98 7 -131 14 -114 25 8 4 23 6 34 3 11 -2 49 -11 85
-19z m-266 -8 l30 -13 -45 -26 c-134 -78 -164 -88 -256 -88 -48 0 -94 4 -101
9 -14 8 287 130 323 130 11 0 33 -6 49 -12z m1307 1 c22 -6 39 -14 39 -17 0
-11 -298 -81 -316 -74 -11 4 20 22 92 54 119 52 129 54 185 37z m-1076 -14
c92 -9 113 -20 53 -29 -35 -5 -63 -2 -112 15 -68 22 -87 36 -38 26 15 -3 59
-8 97 -12z m-1131 -51 c101 -27 167 -49 153 -51 -37 -5 -391 89 -375 99 7 5
20 7 28 4 8 -2 95 -25 194 -52z m1263 51 c-3 -3 -12 -4 -19 -1 -8 3 -5 6 6 6
11 1 17 -2 13 -5z m-237 -34 c53 -21 54 -21 -100 -55 -63 -14 -126 -28 -138
-31 -44 -9 -12 16 76 61 48 24 94 44 102 44 8 0 35 -8 60 -19z m-1666 -6 c75
-19 88 -30 47 -39 -17 -4 -44 -13 -61 -21 -26 -14 -36 -13 -100 7 -39 12 -70
23 -68 24 5 5 102 44 112 44 4 1 36 -6 70 -15z m2066 6 c100 -16 101 -19 23
-52 l-73 -30 -97 33 -98 33 45 12 c57 15 118 17 200 4z m958 -15 c-15 -15
-180 -63 -200 -57 -17 4 6 13 82 33 113 29 126 32 118 24z m-1051 -74 c16 -10
17 -10 1 -11 -20 0 -169 57 -183 71 -10 10 154 -44 182 -60z m-146 24 l84 -36
-55 5 c-30 3 -118 6 -195 7 l-140 1 110 28 c61 16 110 29 111 29 0 1 38 -15
85 -34z m378 31 c-10 -9 -153 -66 -144 -58 11 11 125 61 139 62 5 0 7 -2 5 -4z
m336 -26 c-11 -5 -29 -9 -40 -9 l-20 0 20 9 c11 5 29 9 40 9 l20 0 -20 -9z
m686 -25 l94 -36 -65 5 c-202 16 -230 19 -224 25 6 6 84 39 95 40 4 1 49 -15
100 -34z m-2852 -21 c175 -45 311 -91 311 -104 0 -10 -101 -54 -120 -52 -8 0
-127 35 -265 77 -137 41 -254 77 -259 78 -16 5 97 46 128 46 16 1 109 -19 205
-45z m541 11 c48 -18 10 -19 -55 -1 -47 13 -48 14 -15 14 19 0 51 -6 70 -13z
m1900 11 c0 -14 -98 -35 -134 -29 l-41 7 45 12 c43 12 130 18 130 10z m-1601
-25 l34 -18 -44 -11 c-36 -9 -55 -8 -101 5 -85 23 -74 40 27 41 30 1 63 -6 84
-17z m95 4 c-24 -18 -42 -18 -74 0 -24 14 -22 14 34 15 55 0 58 -1 40 -15z
m501 -4 l120 -6 -75 -32 c-41 -17 -123 -52 -182 -77 l-108 -45 -132 66 -133
66 70 18 c75 19 213 22 440 10z m1270 -6 c6 -2 -21 -4 -60 -4 -42 0 -65 3 -57
8 12 7 91 5 117 -4z m-1985 -31 c44 -16 12 -18 -44 -2 -53 15 -74 33 -26 23
19 -4 50 -13 70 -21z m879 13 c-17 -14 -349 -149 -359 -145 -6 2 71 38 172 80
101 42 185 74 187 72 2 -2 2 -6 0 -7z m-611 -50 c65 -34 93 -53 60 -42 -7 2
-47 13 -88 25 -112 32 -109 29 -80 45 14 8 27 13 30 12 3 -1 38 -19 78 -40z
m1268 36 c-4 -4 -51 -24 -105 -44 l-97 -35 -49 16 -50 17 75 22 c41 12 80 24
85 26 19 7 148 5 141 -2z m947 0 c-7 -2 -19 -2 -25 0 -7 3 -2 5 12 5 14 0 19
-2 13 -5z m97 -13 c12 -8 12 -10 -5 -10 -11 0 -27 5 -35 10 -12 8 -12 10 5 10
11 0 27 -5 35 -10z m315 -6 l140 -7 -40 -18 c-22 -10 -57 -18 -77 -18 -58 -1
-249 29 -283 45 -28 13 -25 14 45 9 41 -2 138 -8 215 -11z m-772 -15 c98 -7
174 -16 170 -20 -4 -4 -42 -18 -84 -30 l-76 -22 -174 46 -174 47 80 -4 c44 -3
160 -11 258 -17z m-240 -25 c78 -19 160 -40 182 -46 l40 -10 -180 -56 -180
-56 -125 43 c-197 68 -193 60 -49 114 68 25 134 46 147 46 13 1 87 -15 165
-35z m-1706 10 c30 -9 53 -18 50 -20 -2 -2 -30 4 -63 15 -72 23 -63 27 13 5z
m3367 -13 c14 -6 0 -15 -57 -40 l-76 -33 -128 16 c-70 10 -135 19 -143 22 -9
4 6 15 40 29 52 23 62 24 200 18 80 -3 153 -9 164 -12z m-2284 -12 l42 -13
-27 -13 c-23 -12 -32 -12 -71 3 -47 18 -55 30 -26 37 18 5 18 5 82 -14z m1287
-18 c43 -16 96 -36 118 -46 l40 -16 -75 -30 c-41 -16 -83 -29 -92 -29 -15 0
-257 64 -338 89 -21 7 -11 13 70 39 113 38 160 36 277 -7z m-3617 -21 c228
-23 422 -44 430 -46 23 -8 -2 -19 -141 -64 l-121 -40 -267 80 c-146 43 -297
88 -336 99 -62 18 -65 20 -25 16 25 -2 232 -23 460 -45z m4784 44 l47 -7 -98
-39 c-91 -36 -103 -38 -163 -32 l-65 7 80 38 c81 38 115 44 199 33z m-4029
-23 c17 -7 12 -10 -25 -20 -25 -7 -58 -16 -74 -21 -70 -23 -77 -1 -8 28 51 22
76 25 107 13z m1499 -10 l39 -17 -167 -63 -167 -63 -67 18 c-37 9 -71 20 -75
24 -4 4 63 28 150 55 87 26 169 51 183 56 38 11 61 9 104 -10z m1589 8 c21 -5
35 -14 32 -20 -9 -14 -45 -10 -90 11 -40 19 -40 19 -10 19 17 1 47 -4 68 -10z
m-2990 -36 c26 -9 47 -20 47 -24 0 -18 -64 -31 -123 -25 -125 14 -135 24 -49
48 74 21 69 21 125 1z m2524 -38 c93 -25 176 -49 186 -53 14 -5 -31 -27 -168
-79 l-187 -72 -175 64 c-97 36 -178 66 -179 68 -3 3 149 53 353 116 2 1 78
-19 170 -44z m908 30 c65 -8 126 -15 135 -16 20 -1 -147 -79 -170 -79 -10 0
-43 11 -73 25 -31 13 -73 32 -94 41 l-38 16 30 14 c39 17 65 17 210 -1z
m-1649 -45 c76 -27 141 -50 144 -51 13 -2 -67 -28 -89 -28 -19 -1 -256 91
-270 105 -5 5 40 23 60 23 9 1 79 -21 155 -49z m-1651 0 l50 -21 -49 6 c-27 3
-61 5 -75 5 l-26 1 25 14 c14 8 25 14 25 15 0 0 23 -9 50 -20z m1532 -31 c65
-28 122 -55 126 -59 4 -4 -38 -22 -95 -40 -89 -28 -113 -32 -173 -27 -65 5
-290 55 -282 63 4 5 290 113 299 114 3 0 60 -23 125 -51z m1603 7 c75 -32 100
-46 87 -51 -21 -9 -230 73 -221 86 9 15 26 11 134 -35z m437 36 c7 -5 -37 -26
-110 -53 -102 -39 -126 -44 -149 -35 -15 5 -25 12 -23 15 3 2 42 21 88 42 81
37 164 50 194 31z m-3313 -24 c65 -17 76 -23 57 -29 -15 -6 -41 -1 -86 17 -59
24 -77 34 -58 34 4 0 43 -10 87 -22z m3619 -10 c108 -12 194 -25 190 -29 -5
-3 -64 -16 -133 -29 -69 -13 -188 -38 -265 -55 l-140 -33 -62 26 c-35 14 -63
28 -63 32 0 5 246 105 270 109 3 1 94 -9 203 -21z m-4227 -14 c46 -15 84 -28
84 -30 0 -2 -24 -16 -52 -30 -35 -18 -68 -27 -98 -27 -43 1 -43 1 -10 -6 l35
-7 -42 -22 c-23 -12 -50 -22 -60 -22 -10 0 -72 18 -138 40 -92 30 -112 39 -85
40 23 0 30 3 22 9 -14 9 22 24 138 59 87 27 108 26 206 -4z m352 6 c53 -6 124
-20 157 -32 l59 -22 -41 -18 -41 -18 -128 41 c-187 59 -188 68 -6 49z m3024
-32 c59 -24 108 -45 108 -49 0 -3 -21 -15 -46 -27 l-46 -23 -62 20 c-33 11
-95 30 -136 42 l-75 21 70 29 c39 15 72 28 75 28 2 1 53 -18 112 -41z m-2645
16 c-3 -3 -12 -4 -19 -1 -8 3 -5 6 6 6 11 1 17 -2 13 -5z m3880 0 c-3 -3 -12
-4 -19 -1 -8 3 -5 6 6 6 11 1 17 -2 13 -5z m-257 -70 c-399 -111 -360 -103
-405 -83 -27 11 -35 19 -25 22 65 24 530 115 585 116 28 0 -21 -17 -155 -55z
m-1984 -16 c95 -34 171 -65 168 -69 -9 -15 -97 -31 -137 -26 -37 5 -231 82
-299 118 -22 12 -22 12 12 25 57 20 74 17 256 -48z m-2117 16 c128 -40 149
-50 93 -48 -29 1 -30 0 -7 -3 28 -4 25 -7 -43 -39 -41 -18 -98 -41 -128 -51
l-54 -17 -115 40 -114 39 52 27 c29 15 70 28 92 29 29 1 33 3 15 6 -23 5 -22
7 20 29 25 13 51 23 59 24 8 0 67 -16 130 -36z m3385 27 c14 -5 16 -10 7 -15
-15 -10 -61 1 -61 14 0 12 26 12 54 1z m-397 -38 c68 -20 120 -40 116 -44 -4
-4 -69 -35 -143 -67 l-135 -60 -155 18 c-138 16 -220 33 -209 45 10 9 366 144
383 144 10 1 75 -15 143 -36z m-2662 12 c-40 -19 -67 -18 -35 0 14 8 34 14 45
14 15 -1 13 -4 -10 -14z m464 -9 c29 -8 55 -17 57 -19 3 -2 -26 -15 -63 -29
l-67 -24 -48 20 c-26 11 -48 23 -48 27 0 9 70 38 95 38 11 1 44 -6 74 -13z
m1124 -33 c60 -26 104 -49 97 -51 -13 -5 -329 25 -370 35 -21 4 -11 10 55 33
44 16 87 29 95 29 8 1 64 -20 123 -46z m1375 28 c17 -10 -85 -50 -112 -43 -15
4 -10 10 25 28 48 25 67 28 87 15z m237 -21 c53 -25 57 -28 30 -29 -37 0 -144
44 -124 52 23 9 32 7 94 -23z m-99 -36 l39 -17 -54 -14 c-47 -12 -59 -12 -103
3 -27 9 -48 18 -45 20 2 2 21 10 43 18 43 16 61 15 120 -10z m-2866 -9 l25
-14 -37 -1 c-37 0 -59 14 -36 23 19 8 21 8 48 -8z m540 -11 c52 -14 108 -34
123 -43 l29 -18 -49 -17 c-26 -10 -75 -26 -108 -38 l-60 -20 -100 46 c-82 37
-95 46 -70 47 29 2 29 2 -5 8 l-35 6 70 27 c39 15 79 27 90 27 11 1 63 -11
115 -25z m729 0 c142 -14 267 -32 281 -39 l25 -13 -25 -10 c-14 -5 -42 -17
-63 -25 -36 -16 -42 -15 -257 41 -120 32 -222 61 -226 65 -10 9 -24 10 265
-19z m1340 22 c-4 -3 -121 -47 -164 -61 -11 -3 9 10 45 29 36 19 78 35 94 36
16 0 27 -2 25 -4z m493 -23 c33 -13 38 -18 23 -23 -21 -7 -95 18 -95 32 0 13
25 10 72 -9z m-336 -26 c9 -8 -306 -78 -338 -75 -27 2 -9 12 107 54 136 50
141 51 183 38 24 -7 46 -15 48 -17z m-3602 -8 c86 -29 125 -49 98 -49 -6 0
-109 -36 -227 -81 l-216 -80 -75 22 c-41 12 -74 25 -74 28 0 10 363 190 384
190 10 1 60 -13 110 -30z m896 11 c0 -13 -40 -13 -60 0 -11 7 -5 10 23 10 20
0 37 -4 37 -10z m2929 -9 l34 -18 -34 -12 c-29 -9 -46 -8 -95 7 l-59 19 35 11
c51 15 81 13 119 -7z m-3100 -22 c23 -7 41 -15 41 -18 0 -4 -64 -32 -142 -62
l-143 -56 -42 16 c-24 8 -39 18 -35 22 14 15 257 117 268 114 7 -2 30 -9 53
-16z m3458 -54 c93 -41 163 -75 156 -75 -12 0 -337 126 -363 141 -11 6 -8 8
12 9 15 0 103 -34 195 -75z m-1460 59 c-3 -3 -12 -4 -19 -1 -8 3 -5 6 6 6 11
1 17 -2 13 -5z m1003 -16 l35 -14 -85 -25 c-66 -19 -106 -24 -179 -22 -161 3
-163 11 -16 49 136 34 186 37 245 12z m-2003 -23 c-9 -8 -86 -11 -81 -4 3 5
-6 9 -20 9 -24 0 -41 12 -30 22 2 3 34 -2 69 -10 36 -9 64 -17 62 -17z m1048
19 c42 -6 205 -65 205 -74 0 -4 -37 -19 -82 -35 l-83 -27 -117 52 c-65 29
-118 55 -118 59 0 4 19 14 43 23 39 15 68 16 152 2z m-1685 -31 c49 -26 43
-26 -37 3 -29 10 -53 22 -53 27 0 11 36 -1 90 -30z m2973 -30 c234 -100 162
-95 -131 9 -88 31 -111 43 -96 49 40 16 73 7 227 -58z m-2493 47 c0 -5 7 -10
15 -10 15 0 125 -54 253 -123 l64 -34 -92 -37 -92 -37 -152 72 c-83 39 -167
78 -186 87 l-35 15 25 9 c43 17 185 66 193 67 4 1 7 -3 7 -9z m1440 -9 l75 -8
-37 -16 c-35 -16 -39 -16 -105 9 -80 30 -87 35 -42 28 19 -3 68 -8 109 -13z
m925 -42 c72 -23 122 -45 112 -47 -15 -3 -415 35 -441 42 -5 1 33 14 85 28 52
15 99 25 104 24 6 -2 69 -23 140 -47z m-2170 31 c-4 -6 7 -10 27 -10 30 0 277
-55 285 -64 2 -2 -32 -18 -76 -36 l-80 -32 -133 70 -133 71 45 4 c25 2 51 4
58 5 7 1 10 -2 7 -8z m883 -46 c59 -26 109 -50 112 -54 3 -4 12 -10 20 -13 23
-9 -42 -6 -70 3 -25 8 -25 8 5 10 17 2 -1 6 -39 11 -67 7 -202 36 -220 47 -7
4 36 26 82 41 2 1 51 -20 110 -45z m-1623 0 c60 -20 113 -39 117 -43 8 -7
-287 -121 -312 -121 -14 0 -218 75 -226 83 -5 5 277 116 296 117 8 0 64 -16
125 -36z m2170 20 c-62 -17 -79 -17 -40 1 17 8 44 14 60 14 24 -1 21 -3 -20
-15z m287 -13 c12 -4 -27 -18 -111 -40 l-129 -33 -66 23 -67 24 83 22 c69 18
99 21 178 16 52 -3 102 -8 112 -12z m-3047 -45 c28 -12 22 -15 -176 -94 -203
-82 -205 -82 -244 -68 l-40 13 35 17 c19 9 107 48 195 86 161 69 168 70 230
46z m2714 -10 c71 -26 65 -35 -22 -37 -29 -1 -43 -4 -32 -7 14 -3 0 -10 -44
-22 l-65 -18 -55 26 -56 26 40 6 c22 4 36 8 30 10 -9 2 107 37 130 39 6 0 39
-10 74 -23z m-3901 -26 c52 -15 82 -28 82 -37 0 -10 5 -11 18 -5 11 6 42 2 91
-11 l74 -21 -31 -15 c-31 -14 -37 -12 -192 49 -88 35 -160 65 -160 68 0 2 8 2
18 -1 9 -2 54 -15 100 -27z m2351 -127 c22 -9 4 -18 -144 -76 l-169 -66 -201
76 c-110 42 -204 79 -208 83 -5 4 54 30 130 59 76 28 147 55 158 60 14 6 74
-11 215 -59 107 -38 206 -72 219 -77z m2729 106 c114 -47 112 -56 -2 -14 -55
19 -102 38 -105 40 -14 15 40 1 107 -26z m-1970 -15 c63 -19 112 -37 111 -39
-2 -2 -68 -22 -147 -44 l-143 -42 -70 37 c-38 20 -66 40 -62 45 9 8 172 77
187 78 5 1 61 -15 124 -35z m890 19 c-10 -2 -26 -2 -35 0 -10 3 -2 5 17 5 19
0 27 -2 18 -5z m-2549 -43 c57 -21 105 -40 106 -42 2 -2 -80 -36 -181 -77
l-184 -74 -130 38 c-72 21 -128 40 -126 42 10 10 374 152 391 153 11 0 67 -18
124 -40z m2168 34 c-3 -3 -12 -4 -19 -1 -8 3 -5 6 6 6 11 1 17 -2 13 -5z m513
-34 c47 -16 272 -96 500 -180 603 -220 611 -223 606 -227 -2 -2 -178 46 -392
106 -214 60 -544 150 -733 201 -190 50 -347 92 -349 94 -2 2 33 13 78 23 103
24 179 20 290 -17z m-1295 -66 c36 -20 64 -38 62 -40 -2 -3 -43 -16 -91 -30
l-88 -25 -66 32 -67 31 85 34 c47 18 88 33 92 34 4 0 37 -16 73 -36z m298 -16
c-80 -28 -150 -48 -159 -44 -9 4 -14 9 -11 12 7 8 278 83 297 83 8 0 -49 -23
-127 -51z m207 27 c0 -3 -35 -23 -78 -44 -90 -45 -195 -76 -218 -63 -10 5 31
24 133 59 152 53 163 56 163 48z m115 -5 l20 -9 -20 0 c-11 0 -29 4 -40 9
l-20 9 20 0 c11 0 29 -4 40 -9z m-1645 -77 c111 -42 197 -79 193 -83 -16 -14
-294 -120 -314 -120 -28 0 -460 132 -454 139 13 12 332 140 353 140 12 1 112
-33 222 -76z m1586 58 c-5 -7 -23 -13 -121 -37 -11 -2 0 7 25 20 43 24 107 35
96 17z m471 -87 l366 -95 306 -154 306 -153 -74 -22 c-133 -39 -114 -44 -362
80 -258 130 -557 268 -776 361 -136 57 -176 79 -142 79 5 0 175 -43 376 -96z
m-304 27 c270 -108 971 -436 1030 -482 15 -12 -10 -21 -212 -73 l-229 -59
-224 115 c-203 105 -663 351 -782 418 l-49 28 32 16 c32 17 261 83 294 85 10
0 73 -21 140 -48z m-2925 16 l32 -12 -59 -24 c-53 -21 -63 -22 -97 -10 l-39
12 50 23 c57 26 68 27 113 11z m2312 -7 c12 -7 7 -12 -20 -23 -67 -28 -118
-40 -146 -33 -37 10 -22 20 61 44 83 24 86 24 105 12z m-370 -26 c65 -31 78
-23 -152 -89 -156 -46 -169 -48 -208 -36 -23 7 -39 15 -35 19 10 10 308 130
325 131 8 0 40 -11 70 -25z m-2079 -18 l34 -15 -37 -15 c-45 -19 -50 -19 -83
-4 l-26 12 33 17 c41 22 38 22 79 5z m2524 4 c3 -5 4 -10 0 -10 -3 0 -40 -9
-81 -20 -42 -12 -79 -19 -81 -16 -4 3 129 53 149 55 4 1 10 -3 13 -9z m-2103
-37 c70 -20 128 -40 128 -43 0 -3 -36 -20 -79 -38 l-78 -33 -119 47 -118 48
59 27 c33 15 64 28 69 28 5 1 67 -16 138 -36z m2085 -14 c-40 -21 -65 -27 -83
-23 -33 8 -24 16 44 35 88 26 103 21 39 -12z m-309 8 c21 -12 7 -18 -155 -71
l-178 -57 -40 17 c-27 11 -35 19 -25 22 57 21 339 101 355 101 11 0 30 -5 43
-12z m778 -199 c216 -117 391 -214 390 -216 -2 -1 -77 29 -167 67 -90 38 -270
112 -399 164 -129 53 -257 105 -285 117 l-50 22 55 28 c30 16 57 29 59 30 2 0
181 -96 397 -212z m-2720 135 c105 -41 115 -48 98 -60 -28 -20 -50 -17 -177
29 l-119 43 39 17 c21 9 39 17 40 17 2 1 55 -20 119 -46z m567 -50 c125 -37
227 -70 227 -73 0 -6 -210 -90 -225 -90 -23 0 -395 154 -388 161 7 6 139 66
153 69 3 0 107 -30 233 -67z m1505 52 l36 -16 -44 -25 c-25 -14 -85 -46 -134
-71 l-88 -44 -81 32 c-44 18 -74 35 -66 38 31 10 325 99 332 100 4 1 24 -6 45
-14z m-641 -7 c18 -7 33 -15 33 -18 0 -10 -328 -102 -352 -98 -15 2 29 24 127
65 83 34 152 62 154 62 3 1 20 -4 38 -11z m2553 -114 c190 -53 346 -97 347
-98 4 -3 -202 -66 -215 -66 -6 0 -129 61 -274 136 -145 74 -249 133 -233 129
17 -3 185 -49 375 -101z m-1483 -98 c471 -241 613 -316 613 -324 0 -4 -47 -19
-103 -34 l-104 -27 -284 125 c-227 100 -553 235 -739 306 -22 8 -13 15 105 78
72 38 131 69 132 70 1 0 172 -87 380 -194z m-952 165 l39 -17 -149 -42 c-204
-56 -195 -54 -239 -39 l-39 13 169 51 c93 29 171 52 174 52 3 0 23 -8 45 -18z
m-1207 -87 c103 -42 191 -81 197 -85 22 -21 -43 -5 -220 55 -250 84 -233 76
-204 92 13 7 28 13 32 14 5 0 93 -34 195 -76z m1472 -26 c0 -4 -44 -30 -97
-58 -112 -58 -103 -57 -263 -6 -68 22 -99 36 -89 41 9 3 79 26 154 49 l138 43
78 -31 c43 -17 79 -34 79 -38z m936 -82 c418 -170 575 -239 567 -246 -10 -9
-95 -30 -122 -30 -15 0 -712 368 -730 385 -10 11 21 -1 285 -109z m-1431 84
c-11 -5 -27 -9 -35 -9 -9 0 -8 4 5 9 11 5 27 9 35 9 9 0 8 -4 -5 -9z m757 -99
c223 -88 775 -327 792 -341 4 -5 -17 -14 -47 -20 l-55 -13 -389 121 c-213 66
-466 145 -560 174 -95 29 -172 57 -170 61 3 10 177 105 194 106 7 1 112 -39
235 -88z m-1013 63 c2 -2 2 -5 0 -7 -11 -9 -321 -78 -331 -74 -24 8 265 96
297 90 17 -3 32 -7 34 -9z m65 -21 c3 -4 -62 -31 -146 -60 l-153 -54 -38 18
-38 18 158 42 c159 41 204 49 217 36z m218 -63 c73 -23 139 -43 147 -46 9 -3
-36 -33 -105 -70 l-119 -65 -75 17 c-68 15 -255 71 -304 90 -15 6 20 21 135
60 84 29 162 53 171 53 9 1 76 -17 150 -39z m690 -211 c271 -83 509 -156 528
-161 19 -6 39 -13 45 -16 11 -7 -197 -61 -235 -62 -15 0 -30 -4 -35 -9 -6 -5
-36 -16 -68 -24 l-59 -16 -351 111 c-497 156 -562 178 -507 173 l45 -5 -48 14
c-27 8 -51 17 -53 19 -6 6 216 126 233 127 7 0 234 -68 505 -151z m1857 117
c-10 -10 -375 -136 -393 -136 -12 1 -31 7 -44 14 -21 11 -4 18 190 68 194 51
259 65 247 54z m-2699 -116 c8 -5 11 -10 5 -10 -5 0 -17 5 -25 10 -8 5 -10 10
-5 10 6 0 17 -5 25 -10z m359 -114 c179 -57 387 -123 461 -147 l135 -42 -85
-24 c-47 -13 -94 -24 -105 -25 -11 -1 -180 72 -375 161 -324 149 -390 181
-366 181 5 0 156 -47 335 -104z m1851 84 c32 -17 33 -19 15 -26 -11 -4 -42
-16 -68 -26 l-48 -18 -42 24 c-28 17 -36 27 -27 30 16 6 122 34 130 35 3 0 21
-8 40 -19z m-1845 -161 c193 -88 353 -164 358 -168 13 -13 -92 -32 -113 -21
-26 14 -37 12 -17 -3 15 -10 -27 -24 -275 -90 -161 -43 -447 -121 -635 -173
l-341 -94 -166 72 c-91 40 -166 75 -166 78 0 14 881 504 902 503 10 -1 16 2
13 7 -5 9 59 49 80 50 6 0 168 -72 360 -161z m1647 100 c49 -25 47 -27 -65
-65 l-71 -24 -63 26 c-35 15 -61 29 -59 32 6 6 177 50 199 51 10 1 36 -8 59
-20z m476 -69 c191 -93 246 -114 92 -34 -50 25 -89 48 -87 50 2 2 84 -29 183
-68 175 -71 178 -72 143 -81 -30 -7 -45 -4 -78 12 -23 12 -41 19 -41 16 0 -2
16 -13 36 -23 l36 -18 -84 -22 c-45 -12 -89 -22 -96 -22 -15 0 -432 223 -432
231 0 5 115 46 135 48 6 0 92 -39 193 -89z m-701 4 c34 -15 60 -30 58 -34 -13
-21 -61 -19 -142 7 l-87 27 40 12 c57 17 63 17 131 -12z m523 -95 c116 -61
210 -115 210 -119 0 -12 -109 -32 -141 -25 -18 4 -113 43 -213 87 -99 44 -197
87 -216 95 l-35 15 80 28 c44 16 86 29 93 29 7 1 107 -49 222 -110z m-733 24
c53 -16 80 -29 72 -33 -8 -5 -50 -20 -94 -35 -44 -15 -89 -31 -100 -36 -11 -4
-44 -17 -74 -28 l-55 -21 -123 37 c-68 20 -123 39 -123 42 0 12 135 41 160 35
17 -4 21 -3 12 4 -10 6 15 17 85 35 126 32 138 32 240 0z m441 -31 c62 -27
115 -52 119 -57 5 -4 1 -6 -7 -3 -8 3 -77 25 -153 48 -86 27 -133 47 -125 52
25 15 55 8 166 -40z m-36 -93 c144 -45 267 -84 272 -87 15 -9 -156 -52 -184
-46 -17 4 -21 3 -12 -4 9 -6 -14 -16 -73 -32 l-87 -22 -256 72 c-142 40 -263
76 -270 79 -7 4 20 17 65 30 43 13 87 27 98 32 56 24 152 58 167 59 9 0 135
-37 280 -81z m1010 14 l92 -37 -54 -14 -55 -14 -77 38 c-80 39 -91 49 -60 57
39 10 66 5 154 -30z m-1856 -20 c68 -20 121 -39 119 -43 -2 -4 -56 -24 -118
-46 l-114 -38 -116 54 c-64 30 -114 56 -113 58 7 7 173 50 195 51 13 1 79 -15
147 -36z m1741 -8 c45 -24 68 -42 60 -46 -6 -4 -45 -15 -85 -25 l-73 -19 -75
39 c-40 21 -74 41 -74 45 0 8 148 51 165 48 6 -1 43 -20 82 -42z m-1989 -67
c61 -28 112 -55 112 -59 0 -5 -17 -11 -37 -15 -21 -4 -40 -10 -43 -13 -3 -4
-72 -31 -155 -60 -382 -135 -663 -237 -806 -291 -86 -33 -163 -60 -170 -60
-24 0 -410 173 -402 180 8 8 660 185 1043 285 118 30 235 62 260 69 69 21 77
20 198 -36z m1756 5 c124 -61 73 -73 -94 -21 l-104 33 39 12 c62 18 79 16 159
-24z m-1092 -53 c134 -39 250 -73 258 -76 8 -3 -81 -32 -199 -64 l-214 -58
-175 90 c-157 82 -173 92 -151 101 59 23 215 76 226 76 7 1 122 -31 255 -69z
m898 -16 c30 -9 59 -19 63 -23 4 -4 -28 -17 -73 -29 -60 -16 -86 -19 -106 -12
-37 14 -54 11 -20 -3 28 -12 26 -13 -51 -33 l-78 -21 -120 32 -120 32 60 19
c33 10 87 19 120 19 33 0 52 1 43 3 -34 7 -17 18 60 38 69 18 82 19 122 7 25
-7 70 -20 100 -29z m355 -15 c30 -17 55 -32 55 -34 0 -2 -35 8 -77 22 -73 25
-78 31 -35 42 1 1 27 -13 57 -30z m-1604 -76 c151 -79 205 -115 149 -100 -10
3 -20 1 -22 -3 -3 -9 -1252 -350 -1281 -350 -26 0 -238 93 -229 101 30 27
1125 411 1147 403 12 -5 16 -4 12 3 -6 9 20 25 51 32 2 1 80 -38 173 -86z
m797 -19 c56 -15 100 -29 98 -32 -3 -2 -118 -34 -257 -72 l-253 -68 -80 43
c-75 41 -78 44 -52 51 15 3 113 30 219 59 106 30 199 52 207 50 8 -2 61 -16
118 -31z m-2815 -81 c78 -34 123 -59 115 -63 -7 -4 -45 -15 -84 -25 l-70 -18
-145 48 c-79 26 -148 51 -152 55 -5 4 24 26 64 48 84 46 50 52 272 -45z m2251
-24 c14 -7 23 -15 21 -19 -3 -4 21 -18 52 -31 l56 -22 -144 -39 c-79 -22 -372
-102 -650 -178 l-506 -139 -86 36 c-48 21 -87 40 -87 43 0 3 39 16 88 29 48
12 332 89 632 171 525 142 577 156 592 159 4 0 18 -4 32 -10z m-1886 -134
c108 -47 200 -89 205 -94 5 -5 -7 -14 -26 -20 -33 -11 -55 -6 -287 69 -139 45
-250 84 -247 86 6 6 128 42 145 43 8 1 102 -37 210 -84z m-135 -60 c125 -44
223 -83 219 -87 -9 -9 -440 -178 -455 -178 -21 -1 -526 215 -515 219 99 34
488 136 504 132 11 -3 123 -42 247 -86z m485 -92 c61 -26 112 -51 112 -55 0
-17 -60 -7 -161 27 -146 49 -138 45 -104 60 17 7 32 14 35 14 3 1 56 -20 118
-46z m-116 -40 c57 -20 106 -39 110 -42 4 -4 -121 -41 -277 -84 l-285 -77 -65
27 c-36 15 -62 29 -59 32 9 9 438 179 456 180 9 1 63 -15 120 -36z m370 -70
c48 -20 86 -39 83 -41 -5 -5 -197 58 -209 69 -24 22 46 6 126 -28z m-113 -24
c85 -31 119 -49 91 -49 -7 0 -137 -36 -287 -80 l-274 -80 -100 41 c-55 23 -98
43 -96 45 7 7 541 152 561 153 11 1 58 -13 105 -30z m-794 -88 l59 -27 -101
-28 -102 -28 -46 18 c-25 11 -45 21 -45 24 0 6 150 68 165 68 6 0 37 -12 70
-27z m193 -82 c53 -23 98 -42 100 -44 4 -3 -126 -43 -168 -51 -22 -5 -55 3
-123 31 -51 21 -96 41 -100 45 -6 5 139 51 186 59 4 0 52 -18 105 -40z"/>
<path d="M8228 8073 c6 -2 18 -2 25 0 6 3 1 5 -13 5 -14 0 -19 -2 -12 -5z"/>
<path d="M8278 8063 c6 -2 18 -2 25 0 6 3 1 5 -13 5 -14 0 -19 -2 -12 -5z"/>
<path d="M8328 8053 c6 -2 18 -2 25 0 6 3 1 5 -13 5 -14 0 -19 -2 -12 -5z"/>
<path d="M8388 8043 c7 -3 16 -2 19 1 4 3 -2 6 -13 5 -11 0 -14 -3 -6 -6z"/>
<path d="M8428 8033 c6 -2 18 -2 25 0 6 3 1 5 -13 5 -14 0 -19 -2 -12 -5z"/>
<path d="M8478 8023 c6 -2 18 -2 25 0 6 3 1 5 -13 5 -14 0 -19 -2 -12 -5z"/>
<path d="M3968 7673 c18 -2 45 -2 60 0 15 2 0 4 -33 4 -33 0 -45 -2 -27 -4z"/>
<path d="M4093 7663 c15 -2 39 -2 55 0 15 2 2 4 -28 4 -30 0 -43 -2 -27 -4z"/>
<path d="M3558 7653 c7 -3 16 -2 19 1 4 3 -2 6 -13 5 -11 0 -14 -3 -6 -6z"/>
<path d="M4213 7653 c15 -2 39 -2 55 0 15 2 2 4 -28 4 -30 0 -43 -2 -27 -4z"/>
<path d="M3638 7643 c7 -3 16 -2 19 1 4 3 -2 6 -13 5 -11 0 -14 -3 -6 -6z"/>
<path d="M4333 7643 c15 -2 39 -2 55 0 15 2 2 4 -28 4 -30 0 -43 -2 -27 -4z"/>
<path d="M4443 7633 c15 -2 39 -2 55 0 15 2 2 4 -28 4 -30 0 -43 -2 -27 -4z"/>
<path d="M3808 7623 c7 -3 16 -2 19 1 4 3 -2 6 -13 5 -11 0 -14 -3 -6 -6z"/>
<path d="M4563 7623 c15 -2 39 -2 55 0 15 2 2 4 -28 4 -30 0 -43 -2 -27 -4z"/>
<path d="M3888 7613 c6 -2 18 -2 25 0 6 3 1 5 -13 5 -14 0 -19 -2 -12 -5z"/>
<path d="M6603 7603 c9 -2 25 -2 35 0 9 3 1 5 -18 5 -19 0 -27 -2 -17 -5z"/>
<path d="M6428 7593 c12 -2 30 -2 40 0 9 3 -1 5 -23 4 -22 0 -30 -2 -17 -4z"/>
<path d="M6263 7583 c9 -2 23 -2 30 0 6 3 -1 5 -18 5 -16 0 -22 -2 -12 -5z"/>
<path d="M6098 7573 c12 -2 30 -2 40 0 9 3 -1 5 -23 4 -22 0 -30 -2 -17 -4z"/>
<path d="M7248 7633 c23 -2 59 -2 80 0 20 2 1 4 -43 4 -44 0 -61 -2 -37 -4z"/>
<path d="M7003 7623 c15 -2 39 -2 55 0 15 2 2 4 -28 4 -30 0 -43 -2 -27 -4z"/>
<path d="M4028 7383 c6 -2 18 -2 25 0 6 3 1 5 -13 5 -14 0 -19 -2 -12 -5z"/>
<path d="M3948 7373 c6 -2 18 -2 25 0 6 3 1 5 -13 5 -14 0 -19 -2 -12 -5z"/>
<path d="M4698 7513 c12 -2 30 -2 40 0 9 3 -1 5 -23 4 -22 0 -30 -2 -17 -4z"/>
<path d="M4793 7503 c9 -2 23 -2 30 0 6 3 -1 5 -18 5 -16 0 -22 -2 -12 -5z"/>
<path d="M5183 7503 c9 -2 25 -2 35 0 9 3 1 5 -18 5 -19 0 -27 -2 -17 -5z"/>
<path d="M4888 7488 c22 -9 127 -9 177 0 26 5 0 7 -77 7 -65 0 -110 -3 -100
-7z"/>
<path d="M4823 7473 c9 -2 23 -2 30 0 6 3 -1 5 -18 5 -16 0 -22 -2 -12 -5z"/>
<path d="M5058 7473 c6 -2 18 -2 25 0 6 3 1 5 -13 5 -14 0 -19 -2 -12 -5z"/>
<path d="M4718 7463 c6 -2 18 -2 25 0 6 3 1 5 -13 5 -14 0 -19 -2 -12 -5z"/>
<path d="M5148 7463 c6 -2 18 -2 25 0 6 3 1 5 -13 5 -14 0 -19 -2 -12 -5z"/>
<path d="M4618 7453 c6 -2 18 -2 25 0 6 3 1 5 -13 5 -14 0 -19 -2 -12 -5z"/>
<path d="M4528 7443 c6 -2 18 -2 25 0 6 3 1 5 -13 5 -14 0 -19 -2 -12 -5z"/>
<path d="M4438 7433 c6 -2 18 -2 25 0 6 3 1 5 -13 5 -14 0 -19 -2 -12 -5z"/>
<path d="M4348 7423 c6 -2 18 -2 25 0 6 3 1 5 -13 5 -14 0 -19 -2 -12 -5z"/>
<path d="M4268 7413 c6 -2 18 -2 25 0 6 3 1 5 -13 5 -14 0 -19 -2 -12 -5z"/>
<path d="M5408 7433 c6 -2 18 -2 25 0 6 3 1 5 -13 5 -14 0 -19 -2 -12 -5z"/>
<path d="M6783 7283 c9 -2 23 -2 30 0 6 3 -1 5 -18 5 -16 0 -22 -2 -12 -5z"/>
<path d="M6883 7273 c9 -2 23 -2 30 0 6 3 -1 5 -18 5 -16 0 -22 -2 -12 -5z"/>
<path d="M6273 7333 c9 -2 23 -2 30 0 6 3 -1 5 -18 5 -16 0 -22 -2 -12 -5z"/>
<path d="M6373 7323 c9 -2 23 -2 30 0 6 3 -1 5 -18 5 -16 0 -22 -2 -12 -5z"/>
<path d="M5668 7403 c6 -2 18 -2 25 0 6 3 1 5 -13 5 -14 0 -19 -2 -12 -5z"/>
<path d="M5758 7393 c7 -3 16 -2 19 1 4 3 -2 6 -13 5 -11 0 -14 -3 -6 -6z"/>
<path d="M5838 7383 c6 -2 18 -2 25 0 6 3 1 5 -13 5 -14 0 -19 -2 -12 -5z"/>
<path d="M5928 7373 c7 -3 16 -2 19 1 4 3 -2 6 -13 5 -11 0 -14 -3 -6 -6z"/>
<path d="M6008 7363 c6 -2 18 -2 25 0 6 3 1 5 -13 5 -14 0 -19 -2 -12 -5z"/>
<path d="M6098 7353 c6 -2 18 -2 25 0 6 3 1 5 -13 5 -14 0 -19 -2 -12 -5z"/>
<path d="M3578 6163 c12 -2 30 -2 40 0 9 3 -1 5 -23 4 -22 0 -30 -2 -17 -4z"/>
<path d="M3678 6153 c12 -2 30 -2 40 0 9 3 -1 5 -23 4 -22 0 -30 -2 -17 -4z"/>
<path d="M3978 6123 c12 -2 30 -2 40 0 9 3 -1 5 -23 4 -22 0 -30 -2 -17 -4z"/>
<path d="M4078 6113 c12 -2 30 -2 40 0 9 3 -1 5 -23 4 -22 0 -30 -2 -17 -4z"/>
<path d="M5048 6013 c12 -2 32 -2 45 0 12 2 2 4 -23 4 -25 0 -35 -2 -22 -4z"/>
<path d="M5138 6003 c12 -2 32 -2 45 0 12 2 2 4 -23 4 -25 0 -35 -2 -22 -4z"/>
<path d="M5238 5993 c12 -2 32 -2 45 0 12 2 2 4 -23 4 -25 0 -35 -2 -22 -4z"/>
<path d="M6833 5833 c15 -2 37 -2 50 0 12 2 0 4 -28 4 -27 0 -38 -2 -22 -4z"/>
<path d="M5258 4993 c7 -3 16 -2 19 1 4 3 -2 6 -13 5 -11 0 -14 -3 -6 -6z"/>
<path d="M5298 4983 c7 -3 16 -2 19 1 4 3 -2 6 -13 5 -11 0 -14 -3 -6 -6z"/>
<path d="M5338 4973 c7 -3 16 -2 19 1 4 3 -2 6 -13 5 -11 0 -14 -3 -6 -6z"/>
<path d="M5428 4953 c7 -3 16 -2 19 1 4 3 -2 6 -13 5 -11 0 -14 -3 -6 -6z"/>
<path d="M5468 4943 c7 -3 16 -2 19 1 4 3 -2 6 -13 5 -11 0 -14 -3 -6 -6z"/>
<path d="M5678 4893 c7 -3 16 -2 19 1 4 3 -2 6 -13 5 -11 0 -14 -3 -6 -6z"/>
<path d="M5100 4860 c8 -5 20 -10 25 -10 6 0 3 5 -5 10 -8 5 -19 10 -25 10 -5
0 -3 -5 5 -10z"/>
<path d="M5260 4790 c8 -5 20 -10 25 -10 6 0 3 5 -5 10 -8 5 -19 10 -25 10 -5
0 -3 -5 5 -10z"/>
<path d="M5350 4750 c8 -5 20 -10 25 -10 6 0 3 5 -5 10 -8 5 -19 10 -25 10 -5
0 -3 -5 5 -10z"/>
<path d="M5420 4720 c8 -5 20 -10 25 -10 6 0 3 5 -5 10 -8 5 -19 10 -25 10 -5
0 -3 -5 5 -10z"/>
<path d="M5490 4690 c8 -5 20 -10 25 -10 6 0 3 5 -5 10 -8 5 -19 10 -25 10 -5
0 -3 -5 5 -10z"/>
<path d="M5560 4660 c8 -5 20 -10 25 -10 6 0 3 5 -5 10 -8 5 -19 10 -25 10 -5
0 -3 -5 5 -10z"/>
<path d="M6318 4733 c7 -3 16 -2 19 1 4 3 -2 6 -13 5 -11 0 -14 -3 -6 -6z"/>
<path d="M6358 4723 c7 -3 16 -2 19 1 4 3 -2 6 -13 5 -11 0 -14 -3 -6 -6z"/>
<path d="M6398 4713 c7 -3 16 -2 19 1 4 3 -2 6 -13 5 -11 0 -14 -3 -6 -6z"/>
<path d="M6588 4663 c7 -3 16 -2 19 1 4 3 -2 6 -13 5 -11 0 -14 -3 -6 -6z"/>
<path d="M6658 4643 c7 -3 16 -2 19 1 4 3 -2 6 -13 5 -11 0 -14 -3 -6 -6z"/>
<path d="M6698 4633 c7 -3 16 -2 19 1 4 3 -2 6 -13 5 -11 0 -14 -3 -6 -6z"/>
<path d="M6768 4613 c7 -3 16 -2 19 1 4 3 -2 6 -13 5 -11 0 -14 -3 -6 -6z"/>
<path d="M6808 4603 c7 -3 16 -2 19 1 4 3 -2 6 -13 5 -11 0 -14 -3 -6 -6z"/>
<path d="M6855 4590 c11 -5 27 -9 35 -9 9 0 8 4 -5 9 -11 5 -27 9 -35 9 -9 0
-8 -4 5 -9z"/>
<path d="M6925 4570 c11 -5 27 -9 35 -9 9 0 8 4 -5 9 -11 5 -27 9 -35 9 -9 0
-8 -4 5 -9z"/>
<path d="M6988 4553 c7 -3 16 -2 19 1 4 3 -2 6 -13 5 -11 0 -14 -3 -6 -6z"/>
<path d="M7035 4540 c11 -5 27 -9 35 -9 9 0 8 4 -5 9 -11 5 -27 9 -35 9 -9 0
-8 -4 5 -9z"/>
<path d="M5750 4580 c8 -5 20 -10 25 -10 6 0 3 5 -5 10 -8 5 -19 10 -25 10 -5
0 -3 -5 5 -10z"/>
<path d="M5800 4560 c8 -5 20 -10 25 -10 6 0 3 5 -5 10 -8 5 -19 10 -25 10 -5
0 -3 -5 5 -10z"/>
<path d="M5870 4530 c8 -5 20 -10 25 -10 6 0 3 5 -5 10 -8 5 -19 10 -25 10 -5
0 -3 -5 5 -10z"/>
<path d="M5920 4510 c8 -5 20 -10 25 -10 6 0 3 5 -5 10 -8 5 -19 10 -25 10 -5
0 -3 -5 5 -10z"/>
<path d="M7245 4480 c11 -5 27 -9 35 -9 9 0 8 4 -5 9 -11 5 -27 9 -35 9 -9 0
-8 -4 5 -9z"/>
<path d="M6040 4460 c8 -5 20 -10 25 -10 6 0 3 5 -5 10 -8 5 -19 10 -25 10 -5
0 -3 -5 5 -10z"/>
<path d="M6110 4430 c8 -5 20 -10 25 -10 6 0 3 5 -5 10 -8 5 -19 10 -25 10 -5
0 -3 -5 5 -10z"/>
<path d="M6160 4410 c8 -5 20 -10 25 -10 6 0 3 5 -5 10 -8 5 -19 10 -25 10 -5
0 -3 -5 5 -10z"/>
<path d="M6210 4390 c8 -5 20 -10 25 -10 6 0 3 5 -5 10 -8 5 -19 10 -25 10 -5
0 -3 -5 5 -10z"/>
<path d="M6280 4360 c8 -5 20 -10 25 -10 6 0 3 5 -5 10 -8 5 -19 10 -25 10 -5
0 -3 -5 5 -10z"/>
<path d="M6330 4340 c8 -5 20 -10 25 -10 6 0 3 5 -5 10 -8 5 -19 10 -25 10 -5
0 -3 -5 5 -10z"/>
<path d="M6450 4290 c8 -5 20 -10 25 -10 6 0 3 5 -5 10 -8 5 -19 10 -25 10 -5
0 -3 -5 5 -10z"/>
<path d="M2058 7833 c6 -2 18 -2 25 0 6 3 1 5 -13 5 -14 0 -19 -2 -12 -5z"/>
<path d="M2123 7823 c9 -2 25 -2 35 0 9 3 1 5 -18 5 -19 0 -27 -2 -17 -5z"/>
<path d="M2213 7813 c9 -2 23 -2 30 0 6 3 -1 5 -18 5 -16 0 -22 -2 -12 -5z"/>
<path d="M3648 7333 c6 -2 18 -2 25 0 6 3 1 5 -13 5 -14 0 -19 -2 -12 -5z"/>
<path d="M3578 7323 c6 -2 18 -2 25 0 6 3 1 5 -13 5 -14 0 -19 -2 -12 -5z"/>
<path d="M3503 7313 c9 -2 23 -2 30 0 6 3 -1 5 -18 5 -16 0 -22 -2 -12 -5z"/>
<path d="M3428 7303 c6 -2 18 -2 25 0 6 3 1 5 -13 5 -14 0 -19 -2 -12 -5z"/>
<path d="M3358 7293 c6 -2 18 -2 25 0 6 3 1 5 -13 5 -14 0 -19 -2 -12 -5z"/>
<path d="M3288 7283 c6 -2 18 -2 25 0 6 3 1 5 -13 5 -14 0 -19 -2 -12 -5z"/>
<path d="M3218 7273 c6 -2 18 -2 25 0 6 3 1 5 -13 5 -14 0 -19 -2 -12 -5z"/>
<path d="M3148 7263 c6 -2 18 -2 25 0 6 3 1 5 -13 5 -14 0 -19 -2 -12 -5z"/>
<path d="M3083 7253 c9 -2 23 -2 30 0 6 3 -1 5 -18 5 -16 0 -22 -2 -12 -5z"/>
<path d="M3018 7243 c6 -2 18 -2 25 0 6 3 1 5 -13 5 -14 0 -19 -2 -12 -5z"/>
<path d="M2748 7203 c6 -2 18 -2 25 0 6 3 1 5 -13 5 -14 0 -19 -2 -12 -5z"/>
<path d="M2683 7193 c9 -2 23 -2 30 0 6 3 -1 5 -18 5 -16 0 -22 -2 -12 -5z"/>
<path d="M2613 7183 c9 -2 23 -2 30 0 6 3 -1 5 -18 5 -16 0 -22 -2 -12 -5z"/>
<path d="M7843 7183 c15 -2 39 -2 55 0 15 2 2 4 -28 4 -30 0 -43 -2 -27 -4z"/>
<path d="M2548 7173 c6 -2 18 -2 25 0 6 3 1 5 -13 5 -14 0 -19 -2 -12 -5z"/>
<path d="M2483 7163 c9 -2 23 -2 30 0 6 3 -1 5 -18 5 -16 0 -22 -2 -12 -5z"/>
<path d="M8438 7143 c12 -2 32 -2 45 0 12 2 2 4 -23 4 -25 0 -35 -2 -22 -4z"/>
<path d="M2293 7133 c9 -2 23 -2 30 0 6 3 -1 5 -18 5 -16 0 -22 -2 -12 -5z"/>
<path d="M2223 7123 c9 -2 23 -2 30 0 6 3 -1 5 -18 5 -16 0 -22 -2 -12 -5z"/>
<path d="M2163 7113 c9 -2 23 -2 30 0 6 3 -1 5 -18 5 -16 0 -22 -2 -12 -5z"/>
<path d="M1709 6355 c40 -20 75 -34 78 -32 2 2 -25 17 -59 32 -93 40 -104 40
-19 0z"/>
<path d="M1938 6293 c12 -2 32 -2 45 0 12 2 2 4 -23 4 -25 0 -35 -2 -22 -4z"/>
<path d="M2098 6283 c12 -2 32 -2 45 0 12 2 2 4 -23 4 -25 0 -35 -2 -22 -4z"/>
<path d="M2253 6273 c15 -2 37 -2 50 0 12 2 0 4 -28 4 -27 0 -38 -2 -22 -4z"/>
<path d="M2398 6263 c12 -2 30 -2 40 0 9 3 -1 5 -23 4 -22 0 -30 -2 -17 -4z"/>
<path d="M2528 6253 c12 -2 30 -2 40 0 9 3 -1 5 -23 4 -22 0 -30 -2 -17 -4z"/>
<path d="M2663 6243 c9 -2 25 -2 35 0 9 3 1 5 -18 5 -19 0 -27 -2 -17 -5z"/>
<path d="M2783 6233 c9 -2 25 -2 35 0 9 3 1 5 -18 5 -19 0 -27 -2 -17 -5z"/>
<path d="M2898 6223 c12 -2 30 -2 40 0 9 3 -1 5 -23 4 -22 0 -30 -2 -17 -4z"/>
<path d="M3013 6213 c9 -2 25 -2 35 0 9 3 1 5 -18 5 -19 0 -27 -2 -17 -5z"/>
<path d="M3128 6203 c12 -2 30 -2 40 0 9 3 -1 5 -23 4 -22 0 -30 -2 -17 -4z"/>
<path d="M2660 5935 c14 -8 30 -14 35 -14 6 0 -1 6 -15 14 -14 8 -29 14 -35
14 -5 0 1 -6 15 -14z"/>
<path d="M2750 5895 c14 -8 30 -14 35 -14 6 0 -1 6 -15 14 -14 8 -29 14 -35
14 -5 0 1 -6 15 -14z"/>
<path d="M2840 5855 c14 -8 30 -14 35 -14 6 0 -1 6 -15 14 -14 8 -29 14 -35
14 -5 0 1 -6 15 -14z"/>
<path d="M7283 5793 c15 -2 37 -2 50 0 12 2 0 4 -28 4 -27 0 -38 -2 -22 -4z"/>
<path d="M7393 5783 c15 -2 37 -2 50 0 12 2 0 4 -28 4 -27 0 -38 -2 -22 -4z"/>
<path d="M7513 5773 c15 -2 37 -2 50 0 12 2 0 4 -28 4 -27 0 -38 -2 -22 -4z"/>
<path d="M7633 5763 c15 -2 37 -2 50 0 12 2 0 4 -28 4 -27 0 -38 -2 -22 -4z"/>
<path d="M7763 5753 c15 -2 37 -2 50 0 12 2 0 4 -28 4 -27 0 -38 -2 -22 -4z"/>
<path d="M7893 5743 c15 -2 39 -2 55 0 15 2 2 4 -28 4 -30 0 -43 -2 -27 -4z"/>
<path d="M8023 5733 c15 -2 39 -2 55 0 15 2 2 4 -28 4 -30 0 -43 -2 -27 -4z"/>
<path d="M8163 5723 c15 -2 39 -2 55 0 15 2 2 4 -28 4 -30 0 -43 -2 -27 -4z"/>
<path d="M1373 5683 c9 -2 25 -2 35 0 9 3 1 5 -18 5 -19 0 -27 -2 -17 -5z"/>
<path d="M1443 5673 c9 -2 25 -2 35 0 9 3 1 5 -18 5 -19 0 -27 -2 -17 -5z"/>
<path d="M1513 5663 c9 -2 25 -2 35 0 9 3 1 5 -18 5 -19 0 -27 -2 -17 -5z"/>
<path d="M1583 5653 c9 -2 25 -2 35 0 9 3 1 5 -18 5 -19 0 -27 -2 -17 -5z"/>
<path d="M1653 5643 c9 -2 25 -2 35 0 9 3 1 5 -18 5 -19 0 -27 -2 -17 -5z"/>
<path d="M1723 5633 c9 -2 25 -2 35 0 9 3 1 5 -18 5 -19 0 -27 -2 -17 -5z"/>
<path d="M1793 5623 c9 -2 25 -2 35 0 9 3 1 5 -18 5 -19 0 -27 -2 -17 -5z"/>
<path d="M1863 5613 c9 -2 25 -2 35 0 9 3 1 5 -18 5 -19 0 -27 -2 -17 -5z"/>
<path d="M1933 5603 c9 -2 25 -2 35 0 9 3 1 5 -18 5 -19 0 -27 -2 -17 -5z"/>
<path d="M2003 5593 c9 -2 25 -2 35 0 9 3 1 5 -18 5 -19 0 -27 -2 -17 -5z"/>
<path d="M2073 5583 c9 -2 23 -2 30 0 6 3 -1 5 -18 5 -16 0 -22 -2 -12 -5z"/>
<path d="M2143 5573 c9 -2 23 -2 30 0 6 3 -1 5 -18 5 -16 0 -22 -2 -12 -5z"/>
<path d="M2213 5563 c9 -2 23 -2 30 0 6 3 -1 5 -18 5 -16 0 -22 -2 -12 -5z"/>
<path d="M2273 5553 c9 -2 25 -2 35 0 9 3 1 5 -18 5 -19 0 -27 -2 -17 -5z"/>
<path d="M2343 5543 c9 -2 23 -2 30 0 6 3 -1 5 -18 5 -16 0 -22 -2 -12 -5z"/>
<path d="M2413 5533 c9 -2 23 -2 30 0 6 3 -1 5 -18 5 -16 0 -22 -2 -12 -5z"/>
<path d="M2478 5523 c6 -2 18 -2 25 0 6 3 1 5 -13 5 -14 0 -19 -2 -12 -5z"/>
<path d="M2543 5513 c9 -2 23 -2 30 0 6 3 -1 5 -18 5 -16 0 -22 -2 -12 -5z"/>
<path d="M2608 5503 c6 -2 18 -2 25 0 6 3 1 5 -13 5 -14 0 -19 -2 -12 -5z"/>
<path d="M2673 5493 c9 -2 23 -2 30 0 6 3 -1 5 -18 5 -16 0 -22 -2 -12 -5z"/>
<path d="M2733 5483 c9 -2 23 -2 30 0 6 3 -1 5 -18 5 -16 0 -22 -2 -12 -5z"/>
<path d="M2798 5473 c6 -2 18 -2 25 0 6 3 1 5 -13 5 -14 0 -19 -2 -12 -5z"/>
<path d="M2863 5463 c9 -2 23 -2 30 0 6 3 -1 5 -18 5 -16 0 -22 -2 -12 -5z"/>
<path d="M2923 5453 c9 -2 23 -2 30 0 6 3 -1 5 -18 5 -16 0 -22 -2 -12 -5z"/>
<path d="M2983 5443 c9 -2 23 -2 30 0 6 3 -1 5 -18 5 -16 0 -22 -2 -12 -5z"/>
<path d="M3048 5433 c6 -2 18 -2 25 0 6 3 1 5 -13 5 -14 0 -19 -2 -12 -5z"/>
<path d="M3108 5423 c6 -2 18 -2 25 0 6 3 1 5 -13 5 -14 0 -19 -2 -12 -5z"/>
<path d="M3173 5413 c9 -2 23 -2 30 0 6 3 -1 5 -18 5 -16 0 -22 -2 -12 -5z"/>
<path d="M3228 5403 c6 -2 18 -2 25 0 6 3 1 5 -13 5 -14 0 -19 -2 -12 -5z"/>
<path d="M3408 5373 c6 -2 18 -2 25 0 6 3 1 5 -13 5 -14 0 -19 -2 -12 -5z"/>
<path d="M3468 5363 c6 -2 18 -2 25 0 6 3 1 5 -13 5 -14 0 -19 -2 -12 -5z"/>
<path d="M3528 5353 c6 -2 18 -2 25 0 6 3 1 5 -13 5 -14 0 -19 -2 -12 -5z"/>
<path d="M3578 5343 c6 -2 18 -2 25 0 6 3 1 5 -13 5 -14 0 -19 -2 -12 -5z"/>
<path d="M3638 5333 c6 -2 18 -2 25 0 6 3 1 5 -13 5 -14 0 -19 -2 -12 -5z"/>
<path d="M3808 5303 c7 -3 16 -2 19 1 4 3 -2 6 -13 5 -11 0 -14 -3 -6 -6z"/>
<path d="M3858 5293 c7 -3 16 -2 19 1 4 3 -2 6 -13 5 -11 0 -14 -3 -6 -6z"/>
<path d="M3908 5283 c6 -2 18 -2 25 0 6 3 1 5 -13 5 -14 0 -19 -2 -12 -5z"/>
<path d="M3968 5273 c7 -3 16 -2 19 1 4 3 -2 6 -13 5 -11 0 -14 -3 -6 -6z"/>
<path d="M4160 5270 c8 -5 20 -10 25 -10 6 0 3 5 -5 10 -8 5 -19 10 -25 10 -5
0 -3 -5 5 -10z"/>
<path d="M4018 5263 c7 -3 16 -2 19 1 4 3 -2 6 -13 5 -11 0 -14 -3 -6 -6z"/>
<path d="M4068 5253 c7 -3 16 -2 19 1 4 3 -2 6 -13 5 -11 0 -14 -3 -6 -6z"/>
<path d="M4118 5243 c7 -3 16 -2 19 1 4 3 -2 6 -13 5 -11 0 -14 -3 -6 -6z"/>
<path d="M4168 5233 c7 -3 16 -2 19 1 4 3 -2 6 -13 5 -11 0 -14 -3 -6 -6z"/>
<path d="M4208 5223 c7 -3 16 -2 19 1 4 3 -2 6 -13 5 -11 0 -14 -3 -6 -6z"/>
<path d="M1128 5178 c5 -5 16 -8 23 -6 8 3 3 7 -10 11 -17 4 -21 3 -13 -5z"/>
<path d="M1185 5160 c11 -5 27 -9 35 -9 9 0 8 4 -5 9 -11 5 -27 9 -35 9 -9 0
-8 -4 5 -9z"/>
<path d="M4488 5163 c7 -3 16 -2 19 1 4 3 -2 6 -13 5 -11 0 -14 -3 -6 -6z"/>
<path d="M4528 5153 c7 -3 16 -2 19 1 4 3 -2 6 -13 5 -11 0 -14 -3 -6 -6z"/>
<path d="M1285 5130 c11 -5 27 -9 35 -9 9 0 8 4 -5 9 -11 5 -27 9 -35 9 -9 0
-8 -4 5 -9z"/>
<path d="M1355 5110 c11 -5 27 -9 35 -9 9 0 8 4 -5 9 -11 5 -27 9 -35 9 -9 0
-8 -4 5 -9z"/>
<path d="M1448 5083 c7 -3 16 -2 19 1 4 3 -2 6 -13 5 -11 0 -14 -3 -6 -6z"/>
<path d="M4620 5070 c8 -5 20 -10 25 -10 6 0 3 5 -5 10 -8 5 -19 10 -25 10 -5
0 -3 -5 5 -10z"/>
<path d="M1525 5060 c11 -5 27 -9 35 -9 9 0 8 4 -5 9 -11 5 -27 9 -35 9 -9 0
-8 -4 5 -9z"/>
<path d="M1625 5030 c11 -5 27 -9 35 -9 9 0 8 4 -5 9 -11 5 -27 9 -35 9 -9 0
-8 -4 5 -9z"/>
<path d="M1695 5010 c11 -5 27 -9 35 -9 9 0 8 4 -5 9 -11 5 -27 9 -35 9 -9 0
-8 -4 5 -9z"/>
<path d="M4780 5000 c8 -5 20 -10 25 -10 6 0 3 5 -5 10 -8 5 -19 10 -25 10 -5
0 -3 -5 5 -10z"/>
<path d="M1795 4980 c11 -5 27 -9 35 -9 9 0 8 4 -5 9 -11 5 -27 9 -35 9 -9 0
-8 -4 5 -9z"/>
<path d="M1070 4950 c8 -5 20 -10 25 -10 6 0 3 5 -5 10 -8 5 -19 10 -25 10 -5
0 -3 -5 5 -10z"/>
<path d="M1888 4953 c7 -3 16 -2 19 1 4 3 -2 6 -13 5 -11 0 -14 -3 -6 -6z"/>
<path d="M1150 4920 c8 -5 20 -10 25 -10 6 0 3 5 -5 10 -8 5 -19 10 -25 10 -5
0 -3 -5 5 -10z"/>
<path d="M1988 4923 c7 -3 16 -2 19 1 4 3 -2 6 -13 5 -11 0 -14 -3 -6 -6z"/>
<path d="M1230 4890 c8 -5 20 -10 25 -10 6 0 3 5 -5 10 -8 5 -19 10 -25 10 -5
0 -3 -5 5 -10z"/>
<path d="M2088 4893 c7 -3 16 -2 19 1 4 3 -2 6 -13 5 -11 0 -14 -3 -6 -6z"/>
<path d="M1310 4860 c8 -5 20 -10 25 -10 6 0 3 5 -5 10 -8 5 -19 10 -25 10 -5
0 -3 -5 5 -10z"/>
<path d="M1390 4830 c8 -5 20 -10 25 -10 6 0 3 5 -5 10 -8 5 -19 10 -25 10 -5
0 -3 -5 5 -10z"/>
<path d="M1440 4810 c8 -5 20 -10 25 -10 6 0 3 5 -5 10 -8 5 -19 10 -25 10 -5
0 -3 -5 5 -10z"/>
<path d="M1520 4780 c8 -5 20 -10 25 -10 6 0 3 5 -5 10 -8 5 -19 10 -25 10 -5
0 -3 -5 5 -10z"/>
<path d="M1570 4760 c8 -5 20 -10 25 -10 6 0 3 5 -5 10 -8 5 -19 10 -25 10 -5
0 -3 -5 5 -10z"/>
<path d="M1620 4740 c8 -5 20 -10 25 -10 6 0 3 5 -5 10 -8 5 -19 10 -25 10 -5
0 -3 -5 5 -10z"/>
<path d="M1700 4710 c8 -5 20 -10 25 -10 6 0 3 5 -5 10 -8 5 -19 10 -25 10 -5
0 -3 -5 5 -10z"/>
<path d="M1750 4690 c8 -5 20 -10 25 -10 6 0 3 5 -5 10 -8 5 -19 10 -25 10 -5
0 -3 -5 5 -10z"/>
<path d="M1800 4670 c8 -5 20 -10 25 -10 6 0 3 5 -5 10 -8 5 -19 10 -25 10 -5
0 -3 -5 5 -10z"/>
<path d="M1850 4650 c8 -5 20 -10 25 -10 6 0 3 5 -5 10 -8 5 -19 10 -25 10 -5
0 -3 -5 5 -10z"/>
<path d="M1900 4630 c8 -5 20 -10 25 -10 6 0 3 5 -5 10 -8 5 -19 10 -25 10 -5
0 -3 -5 5 -10z"/>
<path d="M1950 4610 c8 -5 20 -10 25 -10 6 0 3 5 -5 10 -8 5 -19 10 -25 10 -5
0 -3 -5 5 -10z"/>
<path d="M2000 4590 c8 -5 20 -10 25 -10 6 0 3 5 -5 10 -8 5 -19 10 -25 10 -5
0 -3 -5 5 -10z"/>
<path d="M2050 4570 c8 -5 20 -10 25 -10 6 0 3 5 -5 10 -8 5 -19 10 -25 10 -5
0 -3 -5 5 -10z"/>
<path d="M2091 4556 c9 -9 302 -127 306 -122 2 2 -60 29 -139 61 -174 70 -174
70 -167 61z"/>
<path d="M2420 4420 c8 -5 20 -10 25 -10 6 0 3 5 -5 10 -8 5 -19 10 -25 10 -5
0 -3 -5 5 -10z"/>
<path d="M2470 4400 c8 -5 20 -10 25 -10 6 0 3 5 -5 10 -8 5 -19 10 -25 10 -5
0 -3 -5 5 -10z"/>
<path d="M7515 4400 c11 -5 27 -9 35 -9 9 0 8 4 -5 9 -11 5 -27 9 -35 9 -9 0
-8 -4 5 -9z"/>
<path d="M2559 4365 c29 -14 55 -24 58 -22 2 3 -15 12 -39 22 -69 28 -78 27
-19 0z"/>
<path d="M7638 4363 c7 -3 16 -2 19 1 4 3 -2 6 -13 5 -11 0 -14 -3 -6 -6z"/>
<path d="M2679 4315 c29 -14 55 -24 58 -22 2 3 -15 12 -39 22 -69 28 -78 27
-19 0z"/>
<path d="M7768 4323 c7 -3 16 -2 19 1 4 3 -2 6 -13 5 -11 0 -14 -3 -6 -6z"/>
<path d="M2799 4265 c29 -14 55 -24 58 -22 2 3 -15 12 -39 22 -69 28 -78 27
-19 0z"/>
<path d="M2919 4215 c29 -14 55 -24 58 -22 2 3 -15 12 -39 22 -69 28 -78 27
-19 0z"/>
<path d="M3039 4165 c29 -14 55 -24 58 -22 2 3 -15 12 -39 22 -69 28 -78 27
-19 0z"/>
<path d="M3159 4115 c29 -14 55 -24 58 -22 2 3 -15 12 -39 22 -69 28 -78 27
-19 0z"/>
<path d="M7040 4052 c8 -5 26 -13 40 -16 17 -5 20 -4 10 2 -8 5 -26 13 -40 16
-17 5 -20 4 -10 -2z"/>
<path d="M7120 4020 c8 -5 20 -10 25 -10 6 0 3 5 -5 10 -8 5 -19 10 -25 10 -5
0 -3 -5 5 -10z"/>
<path d="M7170 4002 c8 -5 26 -13 40 -16 17 -5 20 -4 10 2 -8 5 -26 13 -40 16
-17 5 -20 4 -10 -2z"/>
<path d="M7250 3970 c8 -5 20 -10 25 -10 6 0 3 5 -5 10 -8 5 -19 10 -25 10 -5
0 -3 -5 5 -10z"/>
<path d="M7330 3940 c8 -5 20 -10 25 -10 6 0 3 5 -5 10 -8 5 -19 10 -25 10 -5
0 -3 -5 5 -10z"/>
<path d="M7380 3922 c8 -5 26 -13 40 -16 17 -5 20 -4 10 2 -8 5 -26 13 -40 16
-17 5 -20 4 -10 -2z"/>
<path d="M7460 3892 c8 -5 26 -13 40 -16 17 -5 20 -4 10 2 -8 5 -26 13 -40 16
-17 5 -20 4 -10 -2z"/>
<path d="M7540 3860 c8 -5 20 -10 25 -10 6 0 3 5 -5 10 -8 5 -19 10 -25 10 -5
0 -3 -5 5 -10z"/>
<path d="M7620 3830 c8 -5 20 -10 25 -10 6 0 3 5 -5 10 -8 5 -19 10 -25 10 -5
0 -3 -5 5 -10z"/>
<path d="M7700 3800 c8 -5 20 -10 25 -10 6 0 3 5 -5 10 -8 5 -19 10 -25 10 -5
0 -3 -5 5 -10z"/>
<path d="M6510 2720 c8 -5 20 -10 25 -10 6 0 3 5 -5 10 -8 5 -19 10 -25 10 -5
0 -3 -5 5 -10z"/>
<path d="M6550 2707 c8 -8 162 -68 166 -64 2 2 -26 16 -63 30 -91 35 -109 41
-103 34z"/>
<path d="M6740 2630 c8 -5 20 -10 25 -10 6 0 3 5 -5 10 -8 5 -19 10 -25 10 -5
0 -3 -5 5 -10z"/>
<path d="M6815 2601 c22 -10 51 -21 65 -25 14 -3 7 2 -15 13 -22 10 -51 21
-65 25 -14 3 -7 -2 15 -13z"/>
<path d="M6945 2551 c22 -10 51 -21 65 -25 14 -3 7 2 -15 13 -22 10 -51 21
-65 25 -14 3 -7 -2 15 -13z"/>
<path d="M7050 2512 c8 -5 26 -13 40 -16 17 -5 20 -4 10 2 -8 5 -26 13 -40 16
-17 5 -20 4 -10 -2z"/>
<path d="M7130 2482 c8 -5 26 -13 40 -16 17 -5 20 -4 10 2 -8 5 -26 13 -40 16
-17 5 -20 4 -10 -2z"/>
</g>
</svg>
